<?xml version="1.0" encoding="UTF-8" standalone="no"?>
<!-- Created with Inkscape (http://www.inkscape.org/) -->

<svg
   width="99.926025"
   height="39.584351"
   viewBox="0 0 99.926025 39.584351"
   version="1.1"
   id="svg1"
   xml:space="preserve"
   inkscape:version="1.4 (86a8ad7, 2024-10-11)"
   sodipodi:docname="drawing.svg"
   xmlns:inkscape="http://www.inkscape.org/namespaces/inkscape"
   xmlns:sodipodi="http://sodipodi.sourceforge.net/DTD/sodipodi-0.dtd"
   xmlns="http://www.w3.org/2000/svg"
   xmlns:svg="http://www.w3.org/2000/svg"><sodipodi:namedview
     id="namedview1"
     pagecolor="#505050"
     bordercolor="#eeeeee"
     borderopacity="1"
     inkscape:showpageshadow="0"
     inkscape:pageopacity="0"
     inkscape:pagecheckerboard="0"
     inkscape:deskcolor="#505050"
     inkscape:document-units="px"
     showguides="true"
     inkscape:zoom="0.16834372"
     inkscape:cx="781.13994"
     inkscape:cy="1529.6086"
     inkscape:window-width="1366"
     inkscape:window-height="697"
     inkscape:window-x="-8"
     inkscape:window-y="-8"
     inkscape:window-maximized="1"
     inkscape:current-layer="layer1"
     showgrid="false"><sodipodi:guide
       position="868.93828,210.06426"
       orientation="1,0"
       id="guide17"
       inkscape:locked="false" /><inkscape:page
       x="0"
       y="0"
       width="99.926025"
       height="39.584351"
       id="page2"
       margin="0"
       bleed="0" /></sodipodi:namedview><defs
     id="defs1" /><g
     inkscape:label="Layer 1"
     inkscape:groupmode="layer"
     id="layer1"
     transform="translate(-983.42712,434.37411)"><g
       id="g183"><rect
         style="fill:#161616;fill-opacity:1;stroke:none;stroke-width:0.276165;stroke-linecap:square;stroke-miterlimit:3.1;stroke-dasharray:none;stroke-opacity:1"
         id="rect2-9-02-6-6-5-8-5-34"
         width="99.926018"
         height="39.584343"
         x="983.42712"
         y="-434.37411"
         rx="0"
         ry="19.792171" /><path
         d="m 1004.0404,-412.47984 -0.612,-2.12872 q -0.3725,-1.38367 -0.7716,-2.84717 -0.3992,-1.46349 -0.7717,-2.90038 h -0.1064 q -0.3726,1.4635 -0.7717,2.92699 -0.3725,1.43689 -0.7717,2.82056 l -0.61196,2.12872 z m 0.6919,2.42141 h -5.80079 l -1.35706,4.7098 h -3.13987 l 5.64112,-17.40229 h 3.6188 l 5.6411,17.40229 h -3.2729 z m 7.3175,-14.07616 h 3.0866 v 4.84284 l -0.1064,2.28838 q 0.8514,-0.79827 1.9158,-1.25063 1.0644,-0.47896 2.1287,-0.47896 1.2773,0 2.2618,0.47896 0.9845,0.45236 1.6764,1.33045 0.6918,0.85149 1.0377,2.0755 0.3725,1.22402 0.3725,2.74073 0,1.67637 -0.4789,3.00682 -0.479,1.30384 -1.3039,2.20855 -0.7982,0.9047 -1.8626,1.38366 -1.0377,0.47897 -2.1553,0.47897 -0.9313,0 -1.9425,-0.45236 -1.0111,-0.45235 -1.8626,-1.30384 h -0.08 l -0.2661,1.43689 h -2.4214 z m 3.0866,15.38001 q 0.7184,0.66522 1.4901,0.93131 0.7717,0.26609 1.3837,0.26609 1.3836,0 2.315,-1.11758 0.9313,-1.14418 0.9313,-3.37934 0,-1.96907 -0.7185,-3.06004 -0.7184,-1.09096 -2.315,-1.09096 -0.745,0 -1.5167,0.37252 -0.7716,0.37253 -1.5699,1.19741 z m 12.1071,-3.11326 q 0,-1.62315 0.5322,-2.90038 0.5588,-1.27723 1.4635,-2.15533 0.9047,-0.87809 2.1021,-1.33045 1.1974,-0.47896 2.4746,-0.47896 1.2773,0 2.4747,0.47896 1.1974,0.45236 2.1021,1.33045 0.9047,0.8781 1.4369,2.15533 0.5587,1.27723 0.5587,2.90038 0,1.62315 -0.5587,2.90038 -0.5322,1.27724 -1.4369,2.15533 -0.9047,0.8781 -2.1021,1.33045 -1.1974,0.45236 -2.4747,0.45236 -1.2772,0 -2.4746,-0.45236 -1.1974,-0.45235 -2.1021,-1.33045 -0.9047,-0.87809 -1.4635,-2.15533 -0.5322,-1.27723 -0.5322,-2.90038 z m 3.1665,0 q 0,1.96907 0.9047,3.16647 0.9047,1.1708 2.5012,1.1708 1.5966,0 2.5013,-1.1708 0.9047,-1.1974 0.9047,-3.16647 0,-1.99567 -0.9047,-3.16647 -0.9047,-1.1974 -2.5013,-1.1974 -1.5965,0 -2.5012,1.1974 -0.9047,1.1708 -0.9047,3.16647 z m 25.0923,6.51921 h -2.5013 l -0.2395,-2.0755 h -0.1064 q -0.9313,1.09096 -2.0489,1.75619 -1.1176,0.63862 -2.5811,0.63862 -2.2883,0 -3.3261,-1.35706 -1.0377,-1.38367 -1.0377,-3.93814 v -8.08913 h 3.06 v 7.69 q 0,1.59654 0.5322,2.34159 0.5588,0.71844 1.9158,0.71844 0.9313,0 1.6498,-0.42574 0.745,-0.42574 1.6231,-1.51671 v -8.80758 h 3.0601 z m 7.3175,-10.6436 h -3.4858 v -2.28838 l 3.6188,-0.13304 0.3991,-3.56561 h 2.5279 v 3.56561 h 5.9338 v 2.42142 h -5.9338 v 5.37502 q 0,1.62314 0.6652,2.39481 0.6652,0.74505 2.3416,0.74505 0.8515,0 1.5433,-0.13305 0.7185,-0.15965 1.3571,-0.39913 l 0.5588,2.23515 q -0.8515,0.2927 -1.9425,0.50557 -1.0643,0.23949 -2.2617,0.23949 -1.4902,0 -2.5013,-0.39914 -1.0111,-0.39913 -1.6498,-1.11758 -0.612,-0.74505 -0.9047,-1.7828 -0.266,-1.03775 -0.266,-2.28837 z"
         id="text29-2-2"
         style="font-weight:600;font-size:26.609px;font-family:'Source Code Pro';-inkscape-font-specification:'Source Code Pro, Semi-Bold';fill:#f9f9f9;stroke-width:1.09483;stroke-linecap:square;stroke-miterlimit:3.1"
         aria-label="About" /></g></g></svg>
