<?xml version="1.0" encoding="UTF-8" standalone="no"?>
<!-- Created with Inkscape (http://www.inkscape.org/) -->

<svg
   width="77.412292"
   height="18.982918"
   viewBox="0 0 77.412292 18.982918"
   version="1.1"
   id="svg1"
   xml:space="preserve"
   inkscape:version="1.4 (86a8ad7, 2024-10-11)"
   sodipodi:docname="drawing.svg"
   xmlns:inkscape="http://www.inkscape.org/namespaces/inkscape"
   xmlns:sodipodi="http://sodipodi.sourceforge.net/DTD/sodipodi-0.dtd"
   xmlns="http://www.w3.org/2000/svg"
   xmlns:svg="http://www.w3.org/2000/svg"><sodipodi:namedview
     id="namedview1"
     pagecolor="#505050"
     bordercolor="#eeeeee"
     borderopacity="1"
     inkscape:showpageshadow="0"
     inkscape:pageopacity="0"
     inkscape:pagecheckerboard="0"
     inkscape:deskcolor="#505050"
     inkscape:document-units="px"
     showguides="true"
     inkscape:zoom="0.16834372"
     inkscape:cx="781.13994"
     inkscape:cy="1529.6086"
     inkscape:window-width="1366"
     inkscape:window-height="697"
     inkscape:window-x="-8"
     inkscape:window-y="-8"
     inkscape:window-maximized="1"
     inkscape:current-layer="layer1"
     showgrid="false"><sodipodi:guide
       position="1048.4885,707.59852"
       orientation="1,0"
       id="guide17"
       inkscape:locked="false" /><inkscape:page
       x="0"
       y="0"
       width="77.412292"
       height="18.982918"
       id="page2"
       margin="0"
       bleed="0" /></sodipodi:namedview><defs
     id="defs1" /><g
     inkscape:label="Layer 1"
     inkscape:groupmode="layer"
     id="layer1"
     transform="translate(-803.87689,-83.761573)"><path
       d="m 813.42125,95.341678 -0.60809,-2.115088 q -0.37014,-1.374807 -0.76672,-2.82893 -0.39657,-1.454123 -0.76672,-2.881807 h -0.10575 q -0.37014,1.454123 -0.76672,2.908246 -0.37014,1.427684 -0.76672,2.802491 l -0.60809,2.115088 z m 0.6874,2.405913 h -5.76361 l -1.34837,4.679629 h -3.11975 l 5.60498,-17.290842 h 3.59565 l 5.60498,17.290842 h -3.25195 z m 7.27063,-13.98602 h 3.06688 v 4.811826 l -0.10576,2.273719 q 0.84604,-0.793158 1.90358,-1.242614 1.05755,-0.475895 2.11509,-0.475895 1.26905,0 2.24728,0.475895 0.97823,0.449456 1.66563,1.32193 0.68741,0.846035 1.03111,2.062211 0.37014,1.216175 0.37014,2.723176 0,1.665632 -0.4759,2.987562 -0.47589,1.295491 -1.29549,2.194399 -0.79315,0.89892 -1.8507,1.37481 -1.0311,0.4759 -2.14153,0.4759 -0.92535,0 -1.93001,-0.44946 -1.00467,-0.44946 -1.85071,-1.29549 h -0.0793 l -0.26439,1.42768 h -2.40591 z m 3.06688,15.281511 q 0.71384,0.660965 1.48056,0.925351 0.76672,0.264387 1.37481,0.264387 1.3748,0 2.30016,-1.110422 0.92535,-1.13686 0.92535,-3.357702 0,-1.956457 -0.71385,-3.040439 -0.71384,-1.083983 -2.30015,-1.083983 -0.74029,0 -1.507,0.370141 -0.76672,0.37014 -1.55988,1.189737 z m 12.02957,-3.093316 q 0,-1.612755 0.52877,-2.881807 0.55521,-1.269053 1.45413,-2.141527 0.89891,-0.872474 2.08865,-1.32193 1.18973,-0.475895 2.45879,-0.475895 1.26905,0 2.45879,0.475895 1.18973,0.449456 2.08865,1.32193 0.89891,0.872474 1.42768,2.141527 0.55521,1.269052 0.55521,2.881807 0,1.612755 -0.55521,2.881808 -0.52877,1.269056 -1.42768,2.141526 -0.89892,0.87247 -2.08865,1.32193 -1.18974,0.44946 -2.45879,0.44946 -1.26906,0 -2.45879,-0.44946 -1.18974,-0.44946 -2.08865,-1.32193 -0.89892,-0.87247 -1.45413,-2.141526 -0.52877,-1.269053 -0.52877,-2.881808 z m 3.1462,0 q 0,1.956457 0.89891,3.146194 0.89891,1.1633 2.48523,1.1633 1.58631,0 2.48522,-1.1633 0.89892,-1.189737 0.89892,-3.146194 0,-1.982895 -0.89892,-3.146193 -0.89891,-1.189737 -2.48522,-1.189737 -1.58632,0 -2.48523,1.189737 -0.89891,1.163298 -0.89891,3.146193 z m 24.93161,6.477454 h -2.48523 l -0.23795,-2.06221 h -0.10575 q -0.92536,1.08398 -2.03578,1.74495 -1.11042,0.63453 -2.56454,0.63453 -2.27372,0 -3.30483,-1.34837 -1.0311,-1.37481 -1.0311,-3.912915 V 89.44587 h 3.04044 v 7.640756 q 0,1.586316 0.52877,2.326597 0.55521,0.713837 1.90358,0.713837 0.92535,0 1.63919,-0.423013 0.74028,-0.423017 1.61276,-1.507 V 89.44587 h 3.04044 z m 7.27062,-10.575437 h -3.46346 v -2.27372 l 3.59565,-0.132193 0.39658,-3.542772 h 2.51167 v 3.542772 h 5.89581 v 2.405913 h -5.89581 v 5.340597 q 0,1.612755 0.66097,2.379474 0.66096,0.740286 2.32659,0.740286 0.84604,0 1.53344,-0.1322 0.71384,-0.15863 1.34837,-0.396577 l 0.55521,2.220847 q -0.84604,0.29082 -1.93002,0.50233 -1.05754,0.23795 -2.24728,0.23795 -1.48056,0 -2.48523,-0.39658 -1.00466,-0.39658 -1.63919,-1.11042 -0.60809,-0.74028 -0.89891,-1.77139 -0.26439,-1.031105 -0.26439,-2.27372 z"
       id="text29-2-1"
       style="font-weight:600;font-size:26.4386px;font-family:'Source Code Pro';-inkscape-font-specification:'Source Code Pro, Semi-Bold';fill:#161616;stroke-width:1.08782;stroke-linecap:square;stroke-miterlimit:3.1"
       aria-label="About" /></g></svg>
