<?xml version="1.0" encoding="UTF-8" standalone="no"?>
<!-- Created with Inkscape (http://www.inkscape.org/) -->

<svg
   width="42.168579"
   height="40.06929"
   viewBox="0 0 42.168579 40.06929"
   version="1.1"
   id="svg1"
   xml:space="preserve"
   inkscape:version="1.4 (86a8ad7, 2024-10-11)"
   sodipodi:docname="drawing.svg"
   xmlns:inkscape="http://www.inkscape.org/namespaces/inkscape"
   xmlns:sodipodi="http://sodipodi.sourceforge.net/DTD/sodipodi-0.dtd"
   xmlns:xlink="http://www.w3.org/1999/xlink"
   xmlns="http://www.w3.org/2000/svg"
   xmlns:svg="http://www.w3.org/2000/svg"><sodipodi:namedview
     id="namedview1"
     pagecolor="#505050"
     bordercolor="#eeeeee"
     borderopacity="1"
     inkscape:showpageshadow="0"
     inkscape:pageopacity="0"
     inkscape:pagecheckerboard="0"
     inkscape:deskcolor="#505050"
     inkscape:document-units="px"
     showguides="true"
     inkscape:zoom="0.16834372"
     inkscape:cx="781.13994"
     inkscape:cy="1529.6086"
     inkscape:window-width="1366"
     inkscape:window-height="697"
     inkscape:window-x="-8"
     inkscape:window-y="-8"
     inkscape:window-maximized="1"
     inkscape:current-layer="layer1"
     showgrid="false"><sodipodi:guide
       position="712.67862,406.24149"
       orientation="1,0"
       id="guide17"
       inkscape:locked="false" /><inkscape:page
       x="0"
       y="0"
       width="42.168579"
       height="40.06929"
       id="page2"
       margin="0"
       bleed="0" /></sodipodi:namedview><defs
     id="defs1"><linearGradient
       id="linearGradient100"
       inkscape:collect="always"><stop
         style="stop-color:#f4b011;stop-opacity:1;"
         offset="0"
         id="stop100" /><stop
         style="stop-color:#f6e54b;stop-opacity:0.92070484;"
         offset="1"
         id="stop101" /></linearGradient><linearGradient
       inkscape:collect="always"
       xlink:href="#linearGradient100"
       id="linearGradient129"
       gradientUnits="userSpaceOnUse"
       x1="308.58984"
       y1="-191.29111"
       x2="359.93518"
       y2="-191.29111"
       gradientTransform="matrix(0.82128818,0,0,0.82128818,810.63812,-16.387997)" /><linearGradient
       inkscape:collect="always"
       xlink:href="#linearGradient100"
       id="linearGradient131"
       x1="1086.345"
       y1="-161.63742"
       x2="1106.2487"
       y2="-161.63742"
       gradientUnits="userSpaceOnUse" /></defs><g
     inkscape:label="Layer 1"
     inkscape:groupmode="layer"
     id="layer1"
     transform="translate(-1139.6868,238.68179)"><g
       id="g170"
       transform="translate(75.606753,-45.154033)"><path
         d="m 1080.1117,-155.46155 v -12.69408 c 0,-0.48975 0,-0.73472 -0.055,-0.96528 -0.049,-0.20451 -0.13,-0.39981 -0.2399,-0.57909 -0.1238,-0.20211 -0.297,-0.37537 -0.6435,-0.7217 l -12.1441,-12.14418 c -0.3464,-0.34643 -0.5196,-0.51965 -0.6435,-0.7218 -0.1098,-0.17922 -0.1908,-0.37459 -0.2398,-0.57899 -0.055,-0.23053 -0.055,-0.47549 -0.055,-0.96542 v -3.47986 c 0,-1.12182 0,-1.68274 0.2183,-2.11122 0.1921,-0.37689 0.4985,-0.68333 0.8754,-0.87538 0.4285,-0.21832 0.9894,-0.21832 2.1112,-0.21832 h 29.6455 c 1.1219,0 1.6828,0 2.1112,0.21832 0.377,0.19205 0.6833,0.49849 0.8754,0.87538 0.2183,0.42848 0.2183,0.9894 0.2183,2.11122 v 3.47986 c 0,0.48993 0,0.73489 -0.055,0.96542 -0.049,0.2044 -0.13,0.39977 -0.2399,0.57899 -0.1238,0.20215 -0.2971,0.37537 -0.6434,0.7218 l -7.0737,7.0736"
         stroke="#000000"
         stroke-width="4.00615"
         stroke-linecap="round"
         stroke-linejoin="round"
         id="path1-7-4"
         style="fill:none;stroke:url(#linearGradient129);stroke-opacity:1"
         sodipodi:nodetypes="cssscssssssssssssscccc" /><path
         fill-rule="evenodd"
         clip-rule="evenodd"
         d="m 1086.345,-168.17834 c 0,-0.71653 0.5809,-1.30187 1.2974,-1.29741 l 17.3088,0.1078 c 0.7166,0.004 1.2974,0.58088 1.2974,1.29741 0,0.71654 -0.5808,1.30187 -1.2974,1.29741 l -17.3088,-0.1078 c -0.7165,-0.004 -1.2974,-0.58088 -1.2974,-1.29741 z m 0.4425,6.59484 c 0,-0.71656 0.5809,-1.29741 1.2974,-1.29741 h 12.9741 c 0.7165,0 1.2974,0.58085 1.2974,1.29741 0,0.71656 -0.5809,1.2974 -1.2974,1.2974 h -12.9741 c -0.7165,0 -1.2974,-0.58084 -1.2974,-1.2974 z m 0.6071,6.48703 c 0,-0.71655 0.5809,-1.2974 1.2974,-1.2974 h 5.1896 c 0.7166,0 1.2974,0.58085 1.2974,1.2974 0,0.71656 -0.5808,1.29741 -1.2974,1.29741 h -5.1896 c -0.7165,0 -1.2974,-0.58085 -1.2974,-1.29741 z"
         fill="#000000"
         id="path1-34"
         style="fill:url(#linearGradient131);fill-opacity:1;stroke:none;stroke-width:0.683896;stroke-dasharray:none;stroke-opacity:1"
         sodipodi:nodetypes="sssssssssssssssssssss" /></g></g></svg>
