<?xml version="1.0" encoding="UTF-8" standalone="no"?>
<!-- Created with Inkscape (http://www.inkscape.org/) -->

<svg
   width="40.077148"
   height="40.06929"
   viewBox="0 0 40.077148 40.06929"
   version="1.1"
   id="svg1"
   xml:space="preserve"
   inkscape:version="1.4 (86a8ad7, 2024-10-11)"
   sodipodi:docname="drawing.svg"
   xmlns:inkscape="http://www.inkscape.org/namespaces/inkscape"
   xmlns:sodipodi="http://sodipodi.sourceforge.net/DTD/sodipodi-0.dtd"
   xmlns="http://www.w3.org/2000/svg"
   xmlns:svg="http://www.w3.org/2000/svg"><sodipodi:namedview
     id="namedview1"
     pagecolor="#505050"
     bordercolor="#eeeeee"
     borderopacity="1"
     inkscape:showpageshadow="0"
     inkscape:pageopacity="0"
     inkscape:pagecheckerboard="0"
     inkscape:deskcolor="#505050"
     inkscape:document-units="px"
     showguides="true"
     inkscape:zoom="0.16834372"
     inkscape:cx="781.13994"
     inkscape:cy="1529.6086"
     inkscape:window-width="1366"
     inkscape:window-height="697"
     inkscape:window-x="-8"
     inkscape:window-y="-8"
     inkscape:window-maximized="1"
     inkscape:current-layer="layer1"
     showgrid="false"><sodipodi:guide
       position="794.62832,534.28389"
       orientation="1,0"
       id="guide17"
       inkscape:locked="false" /><inkscape:page
       x="0"
       y="0"
       width="40.077148"
       height="40.06929"
       id="page2"
       margin="0"
       bleed="0" /></sodipodi:namedview><defs
     id="defs1" /><g
     inkscape:label="Layer 1"
     inkscape:groupmode="layer"
     id="layer1"
     transform="translate(-1057.7371,110.6394)"><path
       d="m 1083.7841,-84.591628 12.0184,12.01844 m 0,-12.01844 -12.0184,12.01844 m -10.0154,0 v -12.69408 c 0,-0.48975 0,-0.73473 -0.055,-0.96528 -0.049,-0.20451 -0.13,-0.39981 -0.2398,-0.57909 -0.1238,-0.20211 -0.2971,-0.37538 -0.6435,-0.7217 l -12.1442,-12.14417 c -0.3464,-0.346442 -0.5196,-0.519672 -0.6435,-0.721822 -0.1098,-0.17926 -0.1907,-0.37459 -0.2398,-0.57898 -0.055,-0.23054 -0.055,-0.47549 -0.055,-0.96542 v -3.47986 c 0,-1.12182 0,-1.68274 0.2183,-2.11122 0.1921,-0.3769 0.4985,-0.68333 0.8754,-0.87538 0.4285,-0.21832 0.9894,-0.21832 2.1112,-0.21832 h 29.6456 c 1.1219,0 1.6828,0 2.1112,0.21832 0.3769,0.19209 0.6832,0.49848 0.8753,0.87538 0.2184,0.42848 0.2184,0.9894 0.2184,2.11122 v 3.47986 c 0,0.48993 0,0.73488 -0.055,0.96542 -0.05,0.20439 -0.13,0.39978 -0.24,0.57898 -0.1237,0.20215 -0.2971,0.37538 -0.6434,0.721822 l -7.0737,7.07359"
       stroke="#000000"
       stroke-width="4.00614"
       stroke-linecap="round"
       stroke-linejoin="round"
       id="path1-7-3"
       style="fill:none;stroke:#161616;stroke-opacity:1"
       inkscape:export-filename="assets\Filter_Icon_Reset.svg"
       inkscape:export-xdpi="96"
       inkscape:export-ydpi="96" /></g></svg>
