<?xml version="1.0" encoding="UTF-8" standalone="no"?>
<!-- Created with Inkscape (http://www.inkscape.org/) -->

<svg
   width="94.986572"
   height="39.584351"
   viewBox="0 0 94.986572 39.584351"
   version="1.1"
   id="svg1"
   xml:space="preserve"
   inkscape:version="1.4 (86a8ad7, 2024-10-11)"
   sodipodi:docname="drawing.svg"
   xmlns:inkscape="http://www.inkscape.org/namespaces/inkscape"
   xmlns:sodipodi="http://sodipodi.sourceforge.net/DTD/sodipodi-0.dtd"
   xmlns:xlink="http://www.w3.org/1999/xlink"
   xmlns="http://www.w3.org/2000/svg"
   xmlns:svg="http://www.w3.org/2000/svg"><sodipodi:namedview
     id="namedview1"
     pagecolor="#505050"
     bordercolor="#eeeeee"
     borderopacity="1"
     inkscape:showpageshadow="0"
     inkscape:pageopacity="0"
     inkscape:pagecheckerboard="0"
     inkscape:deskcolor="#505050"
     inkscape:document-units="px"
     showguides="true"
     inkscape:zoom="0.16834372"
     inkscape:cx="781.13994"
     inkscape:cy="1529.6086"
     inkscape:window-width="1366"
     inkscape:window-height="697"
     inkscape:window-x="-8"
     inkscape:window-y="-8"
     inkscape:window-maximized="1"
     inkscape:current-layer="layer1"
     showgrid="false"><sodipodi:guide
       position="586.19182,296.46456"
       orientation="1,0"
       id="guide17"
       inkscape:locked="false" /><inkscape:page
       x="0"
       y="0"
       width="94.986572"
       height="39.584351"
       id="page2"
       margin="0"
       bleed="0" /></sodipodi:namedview><defs
     id="defs1"><linearGradient
       id="linearGradient100"
       inkscape:collect="always"><stop
         style="stop-color:#f4b011;stop-opacity:1;"
         offset="0"
         id="stop100" /><stop
         style="stop-color:#f6e54b;stop-opacity:0.92070484;"
         offset="1"
         id="stop101" /></linearGradient><linearGradient
       inkscape:collect="always"
       xlink:href="#linearGradient100"
       id="linearGradient112"
       x1="1209.8801"
       y1="-304.90912"
       x2="1304.8667"
       y2="-304.90912"
       gradientUnits="userSpaceOnUse"
       gradientTransform="translate(56.293514,-23.272532)" /></defs><g
     inkscape:label="Layer 1"
     inkscape:groupmode="layer"
     id="layer1"
     transform="translate(-1266.1736,347.97382)"><g
       id="g184"><rect
         style="fill:url(#linearGradient112);fill-opacity:1;stroke:none;stroke-width:0.269253;stroke-linecap:square;stroke-miterlimit:3.1;stroke-dasharray:none;stroke-opacity:1"
         id="rect2-9-02-6-6-5-8-5-0-6"
         width="94.986542"
         height="39.584343"
         x="1266.1736"
         y="-347.97382"
         rx="0"
         ry="19.792171" /><path
         d="m 1283.4655,-337.04245 h 3.0867 v 6.99816 h 5.9604 v -6.99816 h 3.0866 v 17.40228 h -3.0866 v -7.71661 h -5.9604 v 7.71661 h -3.0867 z m 15.4599,10.88308 q 0,-1.62315 0.5321,-2.90038 0.5588,-1.27723 1.4635,-2.15533 0.9047,-0.8781 2.1022,-1.33045 1.1974,-0.47896 2.4746,-0.47896 1.2772,0 2.4746,0.47896 1.1974,0.45235 2.1021,1.33045 0.9047,0.8781 1.4369,2.15533 0.5588,1.27723 0.5588,2.90038 0,1.62315 -0.5588,2.90038 -0.5322,1.27723 -1.4369,2.15533 -0.9047,0.87809 -2.1021,1.33045 -1.1974,0.45235 -2.4746,0.45235 -1.2772,0 -2.4746,-0.45235 -1.1975,-0.45236 -2.1022,-1.33045 -0.9047,-0.8781 -1.4635,-2.15533 -0.5321,-1.27723 -0.5321,-2.90038 z m 3.1664,0 q 0,1.96906 0.9047,3.16647 0.9048,1.17079 2.5013,1.17079 1.5965,0 2.5012,-1.17079 0.9047,-1.19741 0.9047,-3.16647 0,-1.99568 -0.9047,-3.16647 -0.9047,-1.19741 -2.5012,-1.19741 -1.5965,0 -2.5013,1.19741 -0.9047,1.17079 -0.9047,3.16647 z m 12.6659,-6.54582 h 2.315 l 0.2395,1.67637 h 0.08 q 0.4524,-0.85149 1.091,-1.41028 0.6652,-0.58539 1.7828,-0.58539 1.9158,0 2.3948,2.18193 0.4524,-0.93131 1.1442,-1.54332 0.7184,-0.63861 1.8094,-0.63861 1.3837,0 2.1287,1.09097 0.7717,1.06436 0.7717,3.03342 v 9.25993 h -2.9004 v -9.02045 q 0,-1.72958 -1.091,-1.72958 -0.5321,0 -0.9313,0.39913 -0.3991,0.39914 -0.7716,1.22402 v 9.12688 h -2.3949 v -9.02045 q 0,-1.72958 -1.1175,-1.72958 -0.5322,0 -0.9047,0.39913 -0.3726,0.39914 -0.7451,1.22402 v 9.12688 h -2.9004 z m 16.338,6.54582 q 0,-1.59654 0.5588,-2.87377 0.5854,-1.27724 1.5167,-2.15533 0.9313,-0.90471 2.1287,-1.35706 1.224,-0.47896 2.5012,-0.47896 1.4635,0 2.5811,0.47896 1.1442,0.45235 1.9159,1.27723 0.7716,0.79827 1.1708,1.94246 0.3991,1.14418 0.3991,2.50124 0,0.45236 -0.053,0.82488 -0.027,0.37253 -0.08,0.61201 h -9.4994 q 0.2129,1.7828 1.4103,2.74073 1.1974,0.95792 2.9802,0.95792 1.0112,0 1.8893,-0.26609 0.8781,-0.2927 1.7828,-0.79827 l 1.0377,1.91585 q -1.0644,0.66522 -2.3682,1.09097 -1.3038,0.42574 -2.7407,0.42574 -1.4901,0 -2.794,-0.45235 -1.3038,-0.47896 -2.2617,-1.35706 -0.958,-0.8781 -1.5167,-2.12872 -0.5588,-1.27723 -0.5588,-2.90038 z m 9.9517,-1.1708 q 0,-1.56993 -0.7982,-2.44803 -0.7983,-0.87809 -2.3682,-0.87809 -0.6653,0 -1.2773,0.21287 -0.612,0.21287 -1.1175,0.63862 -0.479,0.42574 -0.8249,1.03775 -0.3459,0.612 -0.4524,1.43688 z"
         id="text29-7-2-9"
         style="font-weight:600;font-size:26.609px;font-family:'Source Code Pro';-inkscape-font-specification:'Source Code Pro, Semi-Bold';fill:#ffffff;stroke-width:1.09483;stroke-linecap:square;stroke-miterlimit:3.1"
         aria-label="Home" /></g></g></svg>
