<?xml version="1.0" encoding="UTF-8" standalone="no"?>
<!-- Created with Inkscape (http://www.inkscape.org/) -->

<svg
   width="722.76147"
   height="21.723511"
   viewBox="0 0 722.76147 21.723511"
   version="1.1"
   id="svg1"
   xml:space="preserve"
   inkscape:version="1.4 (86a8ad7, 2024-10-11)"
   sodipodi:docname="drawing.svg"
   xmlns:inkscape="http://www.inkscape.org/namespaces/inkscape"
   xmlns:sodipodi="http://sodipodi.sourceforge.net/DTD/sodipodi-0.dtd"
   xmlns:xlink="http://www.w3.org/1999/xlink"
   xmlns="http://www.w3.org/2000/svg"
   xmlns:svg="http://www.w3.org/2000/svg"><sodipodi:namedview
     id="namedview1"
     pagecolor="#505050"
     bordercolor="#eeeeee"
     borderopacity="1"
     inkscape:showpageshadow="0"
     inkscape:pageopacity="0"
     inkscape:pagecheckerboard="0"
     inkscape:deskcolor="#505050"
     inkscape:document-units="px"
     showguides="true"
     inkscape:zoom="0.16834372"
     inkscape:cx="781.13994"
     inkscape:cy="1529.6086"
     inkscape:window-width="1366"
     inkscape:window-height="697"
     inkscape:window-x="-8"
     inkscape:window-y="-8"
     inkscape:window-maximized="1"
     inkscape:current-layer="layer1"
     showgrid="false"><sodipodi:guide
       position="1253.7461,988.31341"
       orientation="1,0"
       id="guide17"
       inkscape:locked="false" /><inkscape:page
       x="0"
       y="0"
       width="722.76147"
       height="21.723511"
       id="page2"
       margin="0"
       bleed="0" /></sodipodi:namedview><defs
     id="defs1"><linearGradient
       id="linearGradient100"
       inkscape:collect="always"><stop
         style="stop-color:#f4b011;stop-opacity:1;"
         offset="0"
         id="stop100" /><stop
         style="stop-color:#f6e54b;stop-opacity:0.92070484;"
         offset="1"
         id="stop101" /></linearGradient><linearGradient
       inkscape:collect="always"
       xlink:href="#linearGradient100"
       id="linearGradient110"
       x1="598.14075"
       y1="372.59763"
       x2="1321.8593"
       y2="372.59763"
       gradientUnits="userSpaceOnUse" /></defs><g
     inkscape:label="Layer 1"
     inkscape:groupmode="layer"
     id="layer1"
     transform="translate(-598.61926,-361.73587)"><path
       d="m 600.20085,374.97002 q 0.86057,0.76753 1.93046,1.25596 1.09316,0.46517 2.20957,0.46517 1.39551,0 2.11653,-0.53494 0.72102,-0.53495 0.72102,-1.41878 0,-0.46517 -0.18607,-0.79079 -0.18607,-0.32562 -0.53495,-0.55821 -0.32562,-0.25584 -0.81405,-0.46517 -0.46517,-0.20933 -1.02338,-0.41865 l -2.07001,-0.90709 q -0.60473,-0.23259 -1.18619,-0.58146 -0.58147,-0.34888 -1.04664,-0.83731 -0.46517,-0.48843 -0.74427,-1.13968 -0.27911,-0.65124 -0.27911,-1.48855 0,-0.90708 0.3954,-1.67462 0.39539,-0.79079 1.09315,-1.37225 0.69776,-0.58147 1.65136,-0.90709 0.97686,-0.32562 2.13979,-0.32562 1.39552,0 2.65148,0.53495 1.27923,0.51169 2.23283,1.39552 l -1.39552,1.72113 q -0.76753,-0.60472 -1.60484,-0.9536 -0.83731,-0.34888 -1.88395,-0.34888 -1.18618,0 -1.88394,0.48843 -0.6745,0.46517 -0.6745,1.30248 0,0.44192 0.20933,0.76754 0.20932,0.30236 0.5582,0.5582 0.37214,0.23259 0.83731,0.41866 0.48843,0.18607 1.00012,0.39539 l 2.00024,0.86057 q 0.72102,0.27911 1.32574,0.65124 0.60472,0.37214 1.04664,0.86057 0.44191,0.48843 0.6745,1.13967 0.25584,0.62798 0.25584,1.46529 0,0.93035 -0.39539,1.7444 -0.37214,0.81405 -1.09316,1.44203 -0.72101,0.60473 -1.76765,0.97686 -1.04664,0.34888 -2.37238,0.34888 -1.60484,0 -3.07013,-0.58146 -1.4653,-0.58147 -2.60497,-1.65136 z m 15.44372,-5.51229 h -3.04688 v -2.00024 l 3.16317,-0.11629 0.34888,-3.11666 h 2.20957 v 3.11666 h 5.18666 v 2.11653 h -5.18666 v 4.69824 q 0,1.41877 0.58146,2.09327 0.58147,0.65124 2.04676,0.65124 0.74427,0 1.349,-0.11629 0.62798,-0.13955 1.18618,-0.34888 l 0.48844,1.95372 q -0.74428,0.25585 -1.69788,0.44192 -0.93035,0.20932 -1.97698,0.20932 -1.30249,0 -2.18631,-0.34888 -0.88383,-0.34888 -1.44204,-0.97686 -0.53494,-0.65124 -0.79079,-1.55832 -0.23258,-0.90709 -0.23258,-2.00024 z m 11.18739,6.2333 q 0,-0.9536 0.44192,-1.67462 0.44191,-0.74427 1.39551,-1.25596 0.9536,-0.51169 2.44215,-0.83731 1.48855,-0.32562 3.60509,-0.46517 -0.0698,-0.97686 -0.69776,-1.60484 -0.62798,-0.62799 -2.0235,-0.62799 -0.97686,0 -1.93046,0.37214 -0.93035,0.34888 -1.81417,0.83731 l -0.97686,-1.79091 q 1.04663,-0.60473 2.39563,-1.09316 1.349,-0.48843 2.81429,-0.48843 2.39564,0 3.6516,1.27923 1.25597,1.25596 1.25597,3.6516 v 6.76825 h -2.18631 l -0.20933,-1.41878 h -0.0698 q -0.90708,0.69776 -2.02349,1.20945 -1.09316,0.48843 -2.25609,0.48843 -0.83731,0 -1.53507,-0.25584 -0.69775,-0.23259 -1.20944,-0.6745 -0.51169,-0.44191 -0.7908,-1.04664 -0.2791,-0.62798 -0.2791,-1.37226 z m 2.58171,-0.20932 q 0,0.76753 0.58146,1.11641 0.60472,0.34888 1.46529,0.34888 0.86057,0 1.65136,-0.37214 0.81405,-0.3954 1.60485,-1.02338 v -2.41889 q -1.53507,0.11629 -2.55845,0.32562 -1.02338,0.18607 -1.6281,0.48843 -0.60472,0.30236 -0.86057,0.69776 -0.25584,0.37213 -0.25584,0.83731 z m 11.79211,5.65184 q 0.23259,0.0698 0.46518,0.11629 0.23258,0.0465 0.48843,0.0465 1.09315,0 1.74439,-0.55821 0.65124,-0.53495 1.00012,-1.39552 l 0.2791,-0.72101 -5.11689,-11.28042 h 2.67474 l 2.34912,5.60532 q 0.32562,0.76753 0.62798,1.6281 0.30236,0.86057 0.62798,1.72114 h 0.093 q 0.25584,-0.81405 0.55821,-1.67462 0.30236,-0.86057 0.58146,-1.67462 l 2.07002,-5.60532 h 2.53518 l -4.76801,11.93166 q -0.37214,0.97686 -0.83731,1.74439 -0.44191,0.76754 -1.04664,1.30249 -0.60472,0.5582 -1.39551,0.8373 -0.79079,0.30237 -1.81417,0.30237 -0.46517,0 -0.88383,-0.0698 -0.41865,-0.0465 -0.74427,-0.16281 l 0.51168,-2.09327 z m 27.23584,-9.93143 q 0,-1.86068 0.53495,-3.32598 0.53495,-1.48855 1.46529,-2.51192 0.9536,-1.02338 2.23283,-1.55833 1.30248,-0.53495 2.81429,-0.53495 1.39551,0 2.48867,0.58147 1.09315,0.58146 1.83743,1.32574 l -1.51181,1.67462 q -0.55821,-0.55821 -1.25597,-0.88383 -0.6745,-0.34888 -1.55832,-0.34888 -0.95361,0 -1.7444,0.3954 -0.79079,0.37213 -1.349,1.09315 -0.5582,0.69776 -0.88382,1.72114 -0.30237,1.02338 -0.30237,2.3026 0,1.30248 0.30237,2.34912 0.32562,1.02338 0.88382,1.74439 0.58147,0.69776 1.37226,1.09316 0.81405,0.37213 1.79091,0.37213 0.93035,0 1.65136,-0.39539 0.74428,-0.3954 1.39552,-1.11642 l 1.48855,1.65137 q -0.93034,1.06989 -2.09327,1.65136 -1.16293,0.5582 -2.60497,0.5582 -1.46529,0 -2.74451,-0.51169 -1.25597,-0.51169 -2.20957,-1.51181 -0.93034,-1.00012 -1.46529,-2.46541 -0.53495,-1.46529 -0.53495,-3.34924 z m 13.79236,1.86069 q 0,-1.41877 0.46517,-2.53519 0.48843,-1.11641 1.27922,-1.88394 0.7908,-0.76754 1.83743,-1.16293 1.04664,-0.41866 2.16305,-0.41866 1.11642,0 2.16305,0.41866 1.04664,0.39539 1.83743,1.16293 0.7908,0.76753 1.25597,1.88394 0.48843,1.11642 0.48843,2.53519 0,1.41878 -0.48843,2.53519 -0.46517,1.11641 -1.25597,1.88395 -0.79079,0.76753 -1.83743,1.16293 -1.04663,0.39539 -2.16305,0.39539 -1.11641,0 -2.16305,-0.39539 -1.04663,-0.3954 -1.83743,-1.16293 -0.79079,-0.76754 -1.27922,-1.88395 -0.46517,-1.11641 -0.46517,-2.53519 z m 2.76777,0 q 0,1.72114 0.7908,2.76778 0.79079,1.02337 2.1863,1.02337 1.39552,0 2.18631,-1.02337 0.7908,-1.04664 0.7908,-2.76778 0,-1.74439 -0.7908,-2.76777 -0.79079,-1.04664 -2.18631,-1.04664 -1.39551,0 -2.1863,1.04664 -0.7908,1.02338 -0.7908,2.76777 z m 11.8619,-5.72161 h 2.20957 l 0.20932,1.72113 h 0.093 q 0.81405,-0.81405 1.79091,-1.39551 1.00012,-0.60473 2.32586,-0.60473 1.97698,0 2.90733,1.20945 0.93034,1.18619 0.93034,3.41901 v 7.07062 h -2.698 v -6.72174 q 0,-1.39551 -0.48843,-2.02349 -0.46517,-0.65125 -1.65136,-0.65125 -0.83731,0 -1.48855,0.3954 -0.65124,0.3954 -1.44203,1.20945 v 7.79163 h -2.698 z m 13.95517,0 h 2.20957 l 0.20932,1.72113 h 0.093 q 0.81405,-0.81405 1.79091,-1.39551 1.00012,-0.60473 2.32586,-0.60473 1.97698,0 2.90732,1.20945 0.93035,1.18619 0.93035,3.41901 v 7.07062 h -2.698 v -6.72174 q 0,-1.39551 -0.48843,-2.02349 -0.46517,-0.65125 -1.65136,-0.65125 -0.83731,0 -1.48855,0.3954 -0.65124,0.3954 -1.44203,1.20945 v 7.79163 h -2.698 z m 13.49,5.72161 q 0,-1.39551 0.48843,-2.51193 0.51169,-1.11641 1.32574,-1.88394 0.81405,-0.7908 1.86069,-1.18619 1.06989,-0.41866 2.1863,-0.41866 1.27923,0 2.25609,0.41866 1.00012,0.39539 1.67462,1.11641 0.6745,0.69776 1.02338,1.69788 0.34887,1.00012 0.34887,2.18631 0,0.39539 -0.0465,0.72101 -0.0233,0.32562 -0.0698,0.53495 h -8.30332 q 0.18607,1.55833 1.23271,2.39564 1.04663,0.83731 2.60496,0.83731 0.88383,0 1.65136,-0.23259 0.76753,-0.25584 1.55833,-0.69776 l 0.90708,1.67462 q -0.93034,0.58147 -2.07001,0.95361 -1.13967,0.37213 -2.39564,0.37213 -1.30248,0 -2.44215,-0.39539 -1.13967,-0.41866 -1.97698,-1.18619 -0.83731,-0.76754 -1.32574,-1.86069 -0.48843,-1.11641 -0.48843,-2.53519 z m 8.69871,-1.02338 q 0,-1.37225 -0.69776,-2.13979 -0.69775,-0.76753 -2.07001,-0.76753 -0.58147,0 -1.11641,0.18607 -0.53495,0.18607 -0.97686,0.5582 -0.41866,0.37214 -0.72102,0.90709 -0.30236,0.53495 -0.3954,1.25596 z m 5.51229,1.02338 q 0,-1.41877 0.51169,-2.53519 0.53495,-1.11641 1.41878,-1.88394 0.88382,-0.76754 2.07001,-1.16293 1.18619,-0.41866 2.48867,-0.41866 1.39552,0 2.44216,0.46518 1.06989,0.46517 1.79091,1.13967 l -1.27923,1.67462 q -0.67449,-0.53495 -1.37225,-0.81405 -0.6745,-0.27911 -1.44204,-0.27911 -1.72113,0 -2.79103,1.04664 -1.06989,1.02338 -1.06989,2.76777 0,0.86057 0.2791,1.55833 0.2791,0.69776 0.76753,1.20945 0.51169,0.48843 1.20945,0.76753 0.69776,0.25584 1.53507,0.25584 0.97686,0 1.76765,-0.37213 0.81405,-0.37214 1.48855,-0.88383 l 1.11642,1.72114 q -0.97687,0.86056 -2.18631,1.30248 -1.20945,0.41865 -2.44216,0.41865 -1.349,0 -2.51193,-0.39539 -1.13967,-0.3954 -2.00023,-1.16293 -0.83731,-0.76754 -1.32574,-1.88395 -0.46518,-1.11641 -0.46518,-2.53519 z m 16.67643,-3.60508 h -3.04688 v -2.00024 l 3.16317,-0.11629 0.34888,-3.11666 h 2.20957 v 3.11666 h 5.18667 v 2.11653 h -5.18667 v 4.69824 q 0,1.41877 0.58146,2.09327 0.58147,0.65124 2.04676,0.65124 0.74427,0 1.349,-0.11629 0.62798,-0.13955 1.18619,-0.34888 l 0.48843,1.95372 q -0.74428,0.25585 -1.69788,0.44192 -0.93034,0.20932 -1.97698,0.20932 -1.30248,0 -2.18631,-0.34888 -0.88383,-0.34888 -1.44203,-0.97686 -0.53495,-0.65124 -0.7908,-1.55832 -0.23258,-0.90709 -0.23258,-2.00024 z m 10.97807,3.60508 q 0,-1.39551 0.48843,-2.51193 0.51169,-1.11641 1.32574,-1.88394 0.81405,-0.7908 1.86069,-1.18619 1.06989,-0.41866 2.18631,-0.41866 1.27922,0 2.25608,0.41866 1.00012,0.39539 1.67462,1.11641 0.6745,0.69776 1.02338,1.69788 0.34888,1.00012 0.34888,2.18631 0,0.39539 -0.0465,0.72101 -0.0233,0.32562 -0.0698,0.53495 h -8.30332 q 0.18607,1.55833 1.23271,2.39564 1.04664,0.83731 2.60496,0.83731 0.88383,0 1.65136,-0.23259 0.76754,-0.25584 1.55833,-0.69776 l 0.90708,1.67462 q -0.93034,0.58147 -2.07001,0.95361 -1.13967,0.37213 -2.39564,0.37213 -1.30248,0 -2.44215,-0.39539 -1.13967,-0.41866 -1.97698,-1.18619 -0.83731,-0.76754 -1.32574,-1.86069 -0.48843,-1.11641 -0.48843,-2.53519 z m 8.69871,-1.02338 q 0,-1.37225 -0.69775,-2.13979 -0.69776,-0.76753 -2.07002,-0.76753 -0.58146,0 -1.11641,0.18607 -0.53495,0.18607 -0.97686,0.5582 -0.41866,0.37214 -0.72102,0.90709 -0.30236,0.53495 -0.3954,1.25596 z m 6.83804,-4.69823 h 2.20957 l 0.23259,2.5817 h 0.0698 q 0.88383,-1.39551 2.11653,-2.11653 1.25597,-0.74428 2.74452,-0.74428 0.69776,0 1.18619,0.1163 0.51169,0.093 1.02338,0.34888 l -0.55821,2.25608 q -0.55821,-0.18607 -1.00012,-0.25584 -0.41866,-0.093 -1.0699,-0.093 -1.18618,0 -2.27934,0.6745 -1.09315,0.6745 -1.97698,2.34912 v 6.30308 h -2.698 z m 25.04953,-3.79116 h 2.72126 l 0.83731,8.81501 q 0.0465,0.97687 0.11629,1.90721 0.0698,0.93034 0.1163,1.9072 h 0.0698 q 0.18607,-0.97686 0.41866,-1.9072 0.25584,-0.9536 0.46517,-1.90721 l 1.32574,-4.93082 h 1.72113 l 1.30249,4.93082 q 0.18607,0.93035 0.41865,1.88395 0.25585,0.9536 0.44191,1.93046 h 0.093 q 0.0465,-0.97686 0.11629,-1.93046 0.0698,-0.9536 0.1163,-1.88395 l 0.79079,-8.81501 h 2.55844 l -2.07001,15.21113 h -2.86081 l -1.349,-5.55881 q -0.16281,-0.72101 -0.2791,-1.44203 -0.11629,-0.72102 -0.20933,-1.39552 h -0.0698 q -0.1163,0.6745 -0.23259,1.39552 -0.11629,0.72102 -0.2791,1.44203 l -1.27923,5.55881 h -2.81429 z m 15.74609,3.79116 h 7.62882 v 11.41997 h -2.67474 v -9.30344 h -4.95408 z m 6.09375,-2.00024 q -0.81405,0 -1.37226,-0.48843 -0.53495,-0.48843 -0.53495,-1.30249 0,-0.81405 0.53495,-1.30248 0.55821,-0.51169 1.37226,-0.51169 0.83731,0 1.37226,0.51169 0.53494,0.48843 0.53494,1.30248 0,0.81406 -0.53494,1.30249 -0.53495,0.48843 -1.37226,0.48843 z m 10.32683,4.11677 h -3.04688 v -2.00024 l 3.16317,-0.11629 0.34888,-3.11666 h 2.20957 v 3.11666 h 5.18666 v 2.11653 h -5.18666 v 4.69824 q 0,1.41877 0.58146,2.09327 0.58147,0.65124 2.04676,0.65124 0.74427,0 1.349,-0.11629 0.62798,-0.13955 1.18619,-0.34888 l 0.48843,1.95372 q -0.74428,0.25585 -1.69788,0.44192 -0.93035,0.20932 -1.97698,0.20932 -1.30248,0 -2.18631,-0.34888 -0.88383,-0.34888 -1.44203,-0.97686 -0.53495,-0.65124 -0.7908,-1.55832 -0.23258,-0.90709 -0.23258,-2.00024 z m 11.44324,-7.11713 h 2.698 v 4.23306 l -0.16281,2.44216 q 0.79079,-0.7908 1.76765,-1.37226 1.00012,-0.58147 2.32586,-0.58147 1.97698,0 2.90732,1.20945 0.93035,1.18619 0.93035,3.41901 v 7.07062 h -2.698 v -6.72174 q 0,-1.39551 -0.48843,-2.02349 -0.46517,-0.65125 -1.65136,-0.65125 -0.83731,0 -1.48855,0.3954 -0.65124,0.3954 -1.44203,1.20945 v 7.79163 h -2.698 z m 31.6317,11.14087 -5.0006,-9.93143 h 2.86081 l 1.9072,4.09352 q 0.3954,0.88383 0.76754,1.74439 0.39539,0.83731 0.79079,1.76766 h 0.093 q 0.41866,-0.93035 0.81405,-1.79092 0.3954,-0.86056 0.7908,-1.74439 l 1.88394,-4.07026 h 2.79103 l -5.00059,9.93143 v 5.2797 h -2.698 z m 9.55929,-0.41866 q 0,-1.41877 0.46517,-2.53519 0.48843,-1.11641 1.27923,-1.88394 0.79079,-0.76754 1.83743,-1.16293 1.04663,-0.41866 2.16305,-0.41866 1.11641,0 2.16305,0.41866 1.04663,0.39539 1.83743,1.16293 0.79079,0.76753 1.25596,1.88394 0.48843,1.11642 0.48843,2.53519 0,1.41878 -0.48843,2.53519 -0.46517,1.11641 -1.25596,1.88395 -0.7908,0.76753 -1.83743,1.16293 -1.04664,0.39539 -2.16305,0.39539 -1.11642,0 -2.16305,-0.39539 -1.04664,-0.3954 -1.83743,-1.16293 -0.7908,-0.76754 -1.27923,-1.88395 -0.46517,-1.11641 -0.46517,-2.53519 z m 2.76778,0 q 0,1.72114 0.79079,2.76778 0.79079,1.02337 2.18631,1.02337 1.39551,0 2.1863,-1.02337 0.7908,-1.04664 0.7908,-2.76778 0,-1.74439 -0.7908,-2.76777 -0.79079,-1.04664 -2.1863,-1.04664 -1.39552,0 -2.18631,1.04664 -0.79079,1.02338 -0.79079,2.76777 z m 21.93287,5.69836 h -2.18631 l -0.20933,-1.81417 h -0.093 q -0.81405,0.9536 -1.79091,1.53507 -0.97686,0.5582 -2.25608,0.5582 -2.00024,0 -2.90733,-1.18619 -0.90708,-1.20944 -0.90708,-3.44227 v -7.07061 h 2.67474 v 6.72173 q 0,1.39552 0.46517,2.04676 0.48843,0.62798 1.67462,0.62798 0.81405,0 1.44203,-0.37214 0.65124,-0.37213 1.41878,-1.32574 v -7.69859 h 2.67474 z m 5.0006,-11.41997 h 2.20957 l 0.23259,2.5817 h 0.0698 q 0.88383,-1.39551 2.11654,-2.11653 1.25596,-0.74428 2.74451,-0.74428 0.69776,0 1.18619,0.1163 0.51169,0.093 1.02338,0.34888 l -0.55821,2.25608 q -0.55821,-0.18607 -1.00012,-0.25584 -0.41865,-0.093 -1.06989,-0.093 -1.18619,0 -2.27935,0.6745 -1.09315,0.6745 -1.97698,2.34912 v 6.30308 h -2.698 z m 27.70102,-3.79116 h 9.67557 v 2.27935 h -6.97758 v 4.30284 h 5.93095 v 2.27934 h -5.93095 v 6.3496 h -2.69799 z m 12.79224,12.14099 q 0,-0.9536 0.44191,-1.67462 0.44191,-0.74427 1.39551,-1.25596 0.95361,-0.51169 2.44216,-0.83731 1.48855,-0.32562 3.60508,-0.46517 -0.0698,-0.97686 -0.69776,-1.60484 -0.62798,-0.62799 -2.0235,-0.62799 -0.97686,0 -1.93046,0.37214 -0.93034,0.34888 -1.81417,0.83731 l -0.97686,-1.79091 q 1.04664,-0.60473 2.39563,-1.09316 1.349,-0.48843 2.8143,-0.48843 2.39563,0 3.6516,1.27923 1.25596,1.25596 1.25596,3.6516 v 6.76825 h -2.18631 l -0.20933,-1.41878 H 969.85 q -0.90709,0.69776 -2.0235,1.20945 -1.09315,0.48843 -2.25608,0.48843 -0.83731,0 -1.53507,-0.25584 -0.69776,-0.23259 -1.20945,-0.6745 -0.51169,-0.44191 -0.79079,-1.04664 -0.2791,-0.62798 -0.2791,-1.37226 z m 2.5817,-0.20932 q 0,0.76753 0.58147,1.11641 0.60472,0.34888 1.46529,0.34888 0.86057,0 1.65136,-0.37214 0.81405,-0.3954 1.60484,-1.02338 v -2.41889 q -1.53507,0.11629 -2.55845,0.32562 -1.02337,0.18607 -1.6281,0.48843 -0.60472,0.30236 -0.86057,0.69776 -0.25584,0.37213 -0.25584,0.83731 z m 10.67571,-8.14051 h 2.69799 l 2.20957,5.93094 q 0.32562,0.86057 0.58147,1.72114 0.2791,0.83731 0.5582,1.72113 h 0.093 q 0.2791,-0.88382 0.53495,-1.72113 0.2791,-0.86057 0.60472,-1.72114 l 2.20957,-5.93094 h 2.55844 l -4.44239,11.41997 h -3.04688 z m 14.23427,5.72161 q 0,-1.41877 0.46517,-2.53519 0.48843,-1.11641 1.27922,-1.88394 0.7908,-0.76754 1.83743,-1.16293 1.04664,-0.41866 2.16305,-0.41866 1.11642,0 2.16305,0.41866 1.04664,0.39539 1.83743,1.16293 0.7908,0.76753 1.25596,1.88394 0.4884,1.11642 0.4884,2.53519 0,1.41878 -0.4884,2.53519 -0.46516,1.11641 -1.25596,1.88395 -0.79079,0.76753 -1.83743,1.16293 -1.04663,0.39539 -2.16305,0.39539 -1.11641,0 -2.16305,-0.39539 -1.04663,-0.3954 -1.83743,-1.16293 -0.79079,-0.76754 -1.27922,-1.88395 -0.46517,-1.11641 -0.46517,-2.53519 z m 2.76777,0 q 0,1.72114 0.7908,2.76778 0.79079,1.02337 2.1863,1.02337 1.39552,0 2.18631,-1.02337 0.7908,-1.04664 0.7908,-2.76778 0,-1.74439 -0.7908,-2.76777 -0.79079,-1.04664 -2.18631,-1.04664 -1.39551,0 -2.1863,1.04664 -0.7908,1.02338 -0.7908,2.76777 z m 12.97834,-5.72161 h 2.2095 l 0.2326,2.5817 h 0.07 q 0.8838,-1.39551 2.1165,-2.11653 1.256,-0.74428 2.7445,-0.74428 0.6978,0 1.1862,0.1163 0.5117,0.093 1.0234,0.34888 l -0.5582,2.25608 q -0.5582,-0.18607 -1.0001,-0.25584 -0.4187,-0.093 -1.0699,-0.093 -1.1862,0 -2.2793,0.6745 -1.0932,0.6745 -1.977,2.34912 v 6.30308 h -2.698 z m 12.8852,0 h 7.6289 v 11.41997 h -2.6748 v -9.30344 h -4.9541 z m 6.0938,-2.00024 q -0.8141,0 -1.3723,-0.48843 -0.5349,-0.48843 -0.5349,-1.30249 0,-0.81405 0.5349,-1.30248 0.5582,-0.51169 1.3723,-0.51169 0.8373,0 1.3723,0.51169 0.5349,0.48843 0.5349,1.30248 0,0.81406 -0.5349,1.30249 -0.535,0.48843 -1.3723,0.48843 z m 10.3268,4.11677 h -3.0468 v -2.00024 l 3.1631,-0.11629 0.3489,-3.11666 h 2.2096 v 3.11666 h 5.1866 v 2.11653 h -5.1866 v 4.69824 q 0,1.41877 0.5814,2.09327 0.5815,0.65124 2.0468,0.65124 0.7443,0 1.349,-0.11629 0.628,-0.13955 1.1862,-0.34888 l 0.4884,1.95372 q -0.7443,0.25585 -1.6979,0.44192 -0.9303,0.20932 -1.977,0.20932 -1.3024,0 -2.1863,-0.34888 -0.8838,-0.34888 -1.442,-0.97686 -0.5349,-0.65124 -0.7908,-1.55832 -0.2326,-0.90709 -0.2326,-2.00024 z m 10.9781,3.60508 q 0,-1.39551 0.4884,-2.51193 0.5117,-1.11641 1.3258,-1.88394 0.814,-0.7908 1.8607,-1.18619 1.0699,-0.41866 2.1863,-0.41866 1.2792,0 2.256,0.41866 1.0002,0.39539 1.6747,1.11641 0.6745,0.69776 1.0233,1.69788 0.3489,1.00012 0.3489,2.18631 0,0.39539 -0.047,0.72101 -0.023,0.32562 -0.07,0.53495 h -8.3033 q 0.1861,1.55833 1.2327,2.39564 1.0467,0.83731 2.605,0.83731 0.8838,0 1.6513,-0.23259 0.7676,-0.25584 1.5584,-0.69776 l 0.9071,1.67462 q -0.9304,0.58147 -2.0701,0.95361 -1.1396,0.37213 -2.3956,0.37213 -1.3025,0 -2.4422,-0.39539 -1.1396,-0.41866 -1.9769,-1.18619 -0.8373,-0.76754 -1.3258,-1.86069 -0.4884,-1.11641 -0.4884,-2.53519 z m 8.6987,-1.02338 q 0,-1.37225 -0.6977,-2.13979 -0.6978,-0.76753 -2.0701,-0.76753 -0.5814,0 -1.1164,0.18607 -0.5349,0.18607 -0.9768,0.5582 -0.4187,0.37214 -0.7211,0.90709 -0.3023,0.53495 -0.3953,1.25596 z m 26.6311,0.48843 -0.5349,-1.86068 q -0.3256,-1.20945 -0.6745,-2.48867 -0.3489,-1.27923 -0.6745,-2.53519 h -0.093 q -0.3256,1.27922 -0.6745,2.55844 -0.3256,1.25597 -0.6745,2.46542 l -0.5349,1.86068 z m 0.6048,2.11654 h -5.0704 l -1.1862,4.11677 h -2.7445 l 4.9308,-15.21113 h 3.1632 l 4.9308,15.21113 h -2.8608 z m 7.5125,-7.3032 h 2.2096 l 0.2325,2.5817 h 0.07 q 0.8838,-1.39551 2.1166,-2.11653 1.2559,-0.74428 2.7445,-0.74428 0.6977,0 1.1862,0.1163 0.5116,0.093 1.0233,0.34888 l -0.5582,2.25608 q -0.5582,-0.18607 -1.0001,-0.25584 -0.4186,-0.093 -1.0699,-0.093 -1.1862,0 -2.2793,0.6745 -1.0932,0.6745 -1.977,2.34912 v 6.30308 h -2.698 z m 15.3507,2.11653 h -3.0469 v -2.00024 l 3.1632,-0.11629 0.3488,-3.11666 h 2.2096 v 3.11666 h 5.1867 v 2.11653 h -5.1867 v 4.69824 q 0,1.41877 0.5815,2.09327 0.5814,0.65124 2.0467,0.65124 0.7443,0 1.349,-0.11629 0.628,-0.13955 1.1862,-0.34888 l 0.4885,1.95372 q -0.7443,0.25585 -1.6979,0.44192 -0.9304,0.20932 -1.977,0.20932 -1.3025,0 -2.1863,-0.34888 -0.8838,-0.34888 -1.442,-0.97686 -0.535,-0.65124 -0.7908,-1.55832 -0.2326,-0.90709 -0.2326,-2.00024 z m 11.4897,-2.11653 h 7.6289 v 11.41997 h -2.6748 v -9.30344 h -4.9541 z m 6.0938,-2.00024 q -0.8141,0 -1.3723,-0.48843 -0.5349,-0.48843 -0.5349,-1.30249 0,-0.81405 0.5349,-1.30248 0.5582,-0.51169 1.3723,-0.51169 0.8373,0 1.3722,0.51169 0.535,0.48843 0.535,1.30248 0,0.81406 -0.535,1.30249 -0.5349,0.48843 -1.3722,0.48843 z m 8.6056,10.23378 q 0.9769,0.6745 2.0235,1.0699 1.0699,0.37213 2.3957,0.37213 1.349,0 1.977,-0.37213 0.6279,-0.3954 0.6279,-1.00012 0,-0.60473 -0.814,-1.00012 -0.8141,-0.41866 -2.5585,-0.88383 -0.814,-0.20933 -1.5815,-0.51169 -0.7676,-0.30236 -1.349,-0.69776 -0.5815,-0.39539 -0.9304,-0.90708 -0.3489,-0.51169 -0.3489,-1.16293 0,-1.51181 1.3025,-2.46541 1.3025,-0.95361 3.7447,-0.95361 1.3955,0 2.6282,0.46518 1.2327,0.46517 2.1165,1.04663 l -1.2327,1.65136 q -0.7675,-0.51169 -1.6514,-0.81405 -0.8605,-0.32562 -1.8374,-0.32562 -1.3257,0 -1.8607,0.37214 -0.5349,0.34888 -0.5349,0.88383 0,0.30236 0.2326,0.5582 0.2558,0.23259 0.6745,0.44192 0.4419,0.18606 1.0233,0.37213 0.5815,0.18607 1.2793,0.34888 1.0001,0.25585 1.7909,0.58147 0.814,0.30236 1.3722,0.69776 0.5815,0.39539 0.8839,0.93034 0.3256,0.53495 0.3256,1.23271 0,0.74427 -0.3489,1.39551 -0.3489,0.62798 -1.0234,1.11641 -0.6745,0.46518 -1.6746,0.74428 -1.0001,0.2791 -2.3026,0.2791 -1.6048,0 -3.0701,-0.51169 -1.4653,-0.51169 -2.5352,-1.25596 z m 15.6764,-6.11701 h -3.0469 v -2.00024 l 3.1632,-0.11629 0.3489,-3.11666 h 2.2095 v 3.11666 h 5.1867 v 2.11653 h -5.1867 v 4.69824 q 0,1.41877 0.5815,2.09327 0.5815,0.65124 2.0467,0.65124 0.7443,0 1.349,-0.11629 0.628,-0.13955 1.1862,-0.34888 l 0.4885,1.95372 q -0.7443,0.25585 -1.6979,0.44192 -0.9304,0.20932 -1.977,0.20932 -1.3025,0 -2.1863,-0.34888 -0.8838,-0.34888 -1.442,-0.97686 -0.535,-0.65124 -0.7908,-1.55832 -0.2326,-0.90709 -0.2326,-2.00024 z m 12.234,6.11701 q 0.9768,0.6745 2.0235,1.0699 1.0699,0.37213 2.3956,0.37213 1.349,0 1.977,-0.37213 0.628,-0.3954 0.628,-1.00012 0,-0.60473 -0.8141,-1.00012 -0.814,-0.41866 -2.5584,-0.88383 -0.8141,-0.20933 -1.5816,-0.51169 -0.7675,-0.30236 -1.349,-0.69776 -0.5815,-0.39539 -0.9303,-0.90708 -0.3489,-0.51169 -0.3489,-1.16293 0,-1.51181 1.3025,-2.46541 1.3024,-0.95361 3.7446,-0.95361 1.3955,0 2.6282,0.46518 1.2327,0.46517 2.1166,1.04663 l -1.2328,1.65136 q -0.7675,-0.51169 -1.6513,-0.81405 -0.8606,-0.32562 -1.8374,-0.32562 -1.3258,0 -1.8607,0.37214 -0.535,0.34888 -0.535,0.88383 0,0.30236 0.2326,0.5582 0.2559,0.23259 0.6745,0.44192 0.4419,0.18606 1.0234,0.37213 0.5814,0.18607 1.2792,0.34888 1.0001,0.25585 1.7909,0.58147 0.8141,0.30236 1.3723,0.69776 0.5814,0.39539 0.8838,0.93034 0.3256,0.53495 0.3256,1.23271 0,0.74427 -0.3489,1.39551 -0.3488,0.62798 -1.0233,1.11641 -0.6745,0.46518 -1.6747,0.74428 -1.0001,0.2791 -2.3026,0.2791 -1.6048,0 -3.0701,-0.51169 -1.4653,-0.51169 -2.5352,-1.25596 z m 34.0739,-3.04688 -0.535,-1.86068 q -0.3256,-1.20945 -0.6745,-2.48867 -0.3489,-1.27923 -0.6745,-2.53519 h -0.093 q -0.3256,1.27922 -0.6745,2.55844 -0.3256,1.25597 -0.6745,2.46542 l -0.535,1.86068 z m 0.6047,2.11654 h -5.0704 l -1.1862,4.11677 h -2.7445 l 4.9308,-15.21113 h 3.1632 l 4.9308,15.21113 h -2.8608 z m 6.3961,-7.3032 h 2.2096 l 0.2093,1.72113 h 0.093 q 0.814,-0.81405 1.7909,-1.39551 1.0001,-0.60473 2.3258,-0.60473 1.977,0 2.9074,1.20945 0.9303,1.18619 0.9303,3.41901 v 7.07062 h -2.698 v -6.72174 q 0,-1.39551 -0.4884,-2.02349 -0.4652,-0.65125 -1.6514,-0.65125 -0.8373,0 -1.4885,0.3954 -0.6513,0.3954 -1.4421,1.20945 v 7.79163 h -2.698 z m 13.2807,5.72161 q 0,-1.39551 0.4186,-2.51193 0.4187,-1.11641 1.1164,-1.88394 0.7211,-0.76754 1.6281,-1.18619 0.9071,-0.41866 1.884,-0.41866 1.0234,0 1.7444,0.37214 0.7443,0.34888 1.442,0.97686 l -0.1163,-1.93046 v -4.14003 h 2.698 v 16.42057 h -2.2095 l -0.2094,-1.32574 h -0.07 q -0.6745,0.6745 -1.5816,1.13967 -0.8839,0.46517 -1.8607,0.46517 -1.0932,0 -2.0003,-0.39539 -0.907,-0.41866 -1.5583,-1.18619 -0.628,-0.76754 -0.9768,-1.86069 -0.3489,-1.11641 -0.3489,-2.53519 z m 2.7677,-0.0233 q 0,1.86069 0.7211,2.83755 0.721,0.95361 2.0467,0.95361 1.4188,0 2.5817,-1.37226 v -5.14015 q -0.6047,-0.58147 -1.2094,-0.81405 -0.6047,-0.23259 -1.2327,-0.23259 -0.6048,0 -1.1397,0.25585 -0.5117,0.25584 -0.9071,0.74427 -0.3954,0.46517 -0.628,1.16293 -0.2326,0.69776 -0.2326,1.60484 z m 26.3288,-9.48951 h 9.7221 v 2.27935 h -7.0241 v 3.88418 h 5.9542 v 2.27935 h -5.9542 v 4.48891 h 7.2567 v 2.27934 h -9.9547 z m 12.4899,3.79116 h 2.698 l 2.2096,5.93094 q 0.3256,0.86057 0.5814,1.72114 0.2791,0.83731 0.5582,1.72113 h 0.093 q 0.2791,-0.88382 0.5349,-1.72113 0.2791,-0.86057 0.6048,-1.72114 l 2.2095,-5.93094 h 2.5585 l -4.4424,11.41997 h -3.0469 z m 14.4436,5.72161 q 0,-1.39551 0.4884,-2.51193 0.5117,-1.11641 1.3258,-1.88394 0.814,-0.7908 1.8606,-1.18619 1.0699,-0.41866 2.1863,-0.41866 1.2793,0 2.2561,0.41866 1.0002,0.39539 1.6747,1.11641 0.6745,0.69776 1.0233,1.69788 0.3489,1.00012 0.3489,2.18631 0,0.39539 -0.046,0.72101 -0.023,0.32562 -0.07,0.53495 h -8.3033 q 0.1861,1.55833 1.2327,2.39564 1.0466,0.83731 2.605,0.83731 0.8838,0 1.6513,-0.23259 0.7676,-0.25584 1.5584,-0.69776 l 0.907,1.67462 q -0.9303,0.58147 -2.07,0.95361 -1.1397,0.37213 -2.3956,0.37213 -1.3025,0 -2.4422,-0.39539 -1.1396,-0.41866 -1.9769,-1.18619 -0.8374,-0.76754 -1.3258,-1.86069 -0.4884,-1.11641 -0.4884,-2.53519 z m 8.6987,-1.02338 q 0,-1.37225 -0.6978,-2.13979 -0.6977,-0.76753 -2.07,-0.76753 -0.5814,0 -1.1164,0.18607 -0.5349,0.18607 -0.9769,0.5582 -0.4186,0.37214 -0.721,0.90709 -0.3023,0.53495 -0.3954,1.25596 z m 5.7217,-4.69823 h 2.2095 l 0.2093,1.72113 h 0.093 q 0.814,-0.81405 1.7909,-1.39551 1.0001,-0.60473 2.3259,-0.60473 1.9769,0 2.9073,1.20945 0.9303,1.18619 0.9303,3.41901 v 7.07062 h -2.698 v -6.72174 q 0,-1.39551 -0.4884,-2.02349 -0.4652,-0.65125 -1.6514,-0.65125 -0.8373,0 -1.4885,0.3954 -0.6513,0.3954 -1.442,1.20945 v 7.79163 h -2.698 z m 16.467,2.11653 h -3.0469 v -2.00024 l 3.1632,-0.11629 0.3489,-3.11666 h 2.2096 v 3.11666 h 5.1866 v 2.11653 h -5.1866 v 4.69824 q 0,1.41877 0.5814,2.09327 0.5815,0.65124 2.0468,0.65124 0.7443,0 1.349,-0.11629 0.628,-0.13955 1.1862,-0.34888 l 0.4884,1.95372 q -0.7443,0.25585 -1.6979,0.44192 -0.9303,0.20932 -1.977,0.20932 -1.3024,0 -2.1863,-0.34888 -0.8838,-0.34888 -1.442,-0.97686 -0.5349,-0.65124 -0.7908,-1.55832 -0.2326,-0.90709 -0.2326,-2.00024 z m 12.2341,6.11701 q 0.9768,0.6745 2.0235,1.0699 1.0699,0.37213 2.3956,0.37213 1.349,0 1.977,-0.37213 0.628,-0.3954 0.628,-1.00012 0,-0.60473 -0.8141,-1.00012 -0.814,-0.41866 -2.5584,-0.88383 -0.8141,-0.20933 -1.5816,-0.51169 -0.7675,-0.30236 -1.349,-0.69776 -0.5815,-0.39539 -0.9303,-0.90708 -0.3489,-0.51169 -0.3489,-1.16293 0,-1.51181 1.3025,-2.46541 1.3024,-0.95361 3.7446,-0.95361 1.3955,0 2.6282,0.46518 1.2327,0.46517 2.1165,1.04663 l -1.2327,1.65136 q -0.7675,-0.51169 -1.6513,-0.81405 -0.8606,-0.32562 -1.8374,-0.32562 -1.3258,0 -1.8607,0.37214 -0.535,0.34888 -0.535,0.88383 0,0.30236 0.2326,0.5582 0.2558,0.23259 0.6745,0.44192 0.4419,0.18606 1.0234,0.37213 0.5814,0.18607 1.2792,0.34888 1.0001,0.25585 1.7909,0.58147 0.8141,0.30236 1.3723,0.69776 0.5814,0.39539 0.8838,0.93034 0.3256,0.53495 0.3256,1.23271 0,0.74427 -0.3489,1.39551 -0.3488,0.62798 -1.0233,1.11641 -0.6745,0.46518 -1.6747,0.74428 -1.0001,0.2791 -2.3026,0.2791 -1.6048,0 -3.0701,-0.51169 -1.4653,-0.51169 -2.5352,-1.25596 z"
       id="text29-2-1-0"
       style="font-weight:600;font-size:23.2586px;font-family:'Source Code Pro';-inkscape-font-specification:'Source Code Pro, Semi-Bold';fill:url(#linearGradient110);stroke-width:0.956979;stroke-linecap:square;stroke-miterlimit:3.1"
       aria-label="Stay Connecter With Your Favorite Artists And Events" /></g></svg>
