<?xml version="1.0" encoding="UTF-8" standalone="no"?>
<!-- Created with Inkscape (http://www.inkscape.org/) -->

<svg
   width="91.424805"
   height="18.982918"
   viewBox="0 0 91.424805 18.982918"
   version="1.1"
   id="svg1"
   xml:space="preserve"
   inkscape:version="1.4 (86a8ad7, 2024-10-11)"
   sodipodi:docname="drawing.svg"
   xmlns:inkscape="http://www.inkscape.org/namespaces/inkscape"
   xmlns:sodipodi="http://sodipodi.sourceforge.net/DTD/sodipodi-0.dtd"
   xmlns="http://www.w3.org/2000/svg"
   xmlns:svg="http://www.w3.org/2000/svg"><sodipodi:namedview
     id="namedview1"
     pagecolor="#505050"
     bordercolor="#eeeeee"
     borderopacity="1"
     inkscape:showpageshadow="0"
     inkscape:pageopacity="0"
     inkscape:pagecheckerboard="0"
     inkscape:deskcolor="#505050"
     inkscape:document-units="px"
     showguides="true"
     inkscape:zoom="0.16834372"
     inkscape:cx="781.13994"
     inkscape:cy="1529.6086"
     inkscape:window-width="1366"
     inkscape:window-height="697"
     inkscape:window-x="-8"
     inkscape:window-y="-8"
     inkscape:window-maximized="1"
     inkscape:current-layer="layer1"
     showgrid="false"><sodipodi:guide
       position="929.37951,707.59852"
       orientation="1,0"
       id="guide17"
       inkscape:locked="false" /><inkscape:page
       x="0"
       y="0"
       width="91.424805"
       height="18.982918"
       id="page2"
       margin="0"
       bleed="0" /></sodipodi:namedview><defs
     id="defs1" /><g
     inkscape:label="Layer 1"
     inkscape:groupmode="layer"
     id="layer1"
     transform="translate(-922.9859,-83.761573)"><path
       d="m 926.0528,93.22659 h 2.37947 q 1.79782,0 2.72318,-0.740281 0.95179,-0.74028 0.95179,-2.220842 0,-1.507 -0.95179,-2.088649 -0.92536,-0.58165 -2.72318,-0.58165 h -2.37947 z m 6.29238,9.20063 -3.7014,-6.768279 h -2.59098 v 6.768279 h -3.06688 V 85.136378 h 5.76361 q 1.34837,0 2.51167,0.264386 1.1633,0.264386 2.00933,0.872474 0.87248,0.581649 1.34837,1.559878 0.50234,0.978228 0.50234,2.432351 0,1.982895 -0.95179,3.199071 -0.92535,1.216175 -2.48523,1.744947 l 4.12442,7.217735 z m 5.92226,-6.477454 q 0,-1.586316 0.55521,-2.855369 0.58165,-1.269053 1.507,-2.141526 0.92535,-0.898913 2.11509,-1.348369 1.21617,-0.475895 2.48523,-0.475895 1.45412,0 2.56454,0.475895 1.13686,0.449456 1.90358,1.269053 0.76672,0.793158 1.1633,1.930018 0.39658,1.136859 0.39658,2.485228 0,0.449456 -0.0529,0.819597 -0.0264,0.37014 -0.0793,0.608087 h -9.43858 q 0.21151,1.771387 1.40125,2.723176 1.18974,0.951789 2.96112,0.951789 1.00467,0 1.87714,-0.26439 0.87248,-0.29082 1.77139,-0.793153 l 1.03111,1.903583 q -1.05755,0.66096 -2.35304,1.08398 -1.29549,0.42302 -2.72318,0.42302 -1.48056,0 -2.77605,-0.44946 -1.29549,-0.47589 -2.24728,-1.34837 -0.95179,-0.87247 -1.507,-2.115086 -0.55521,-1.269053 -0.55521,-2.881808 z m 9.88804,-1.163298 q 0,-1.559878 -0.79316,-2.432352 -0.79316,-0.872473 -2.35304,-0.872473 -0.66096,0 -1.26905,0.211508 -0.60809,0.211509 -1.11042,0.634527 -0.4759,0.423017 -0.8196,1.031105 -0.3437,0.608088 -0.44945,1.427685 z m 6.21308,4.15086 q 0,-1.083983 0.50233,-1.903579 0.50233,-0.846036 1.58632,-1.427685 1.08398,-0.581649 2.77605,-0.951789 1.69207,-0.370141 4.09798,-0.528772 -0.0793,-1.110422 -0.79315,-1.824264 -0.71385,-0.713842 -2.30016,-0.713842 -1.11042,0 -2.19441,0.423018 -1.05754,0.396579 -2.06221,0.951789 l -1.11042,-2.035772 q 1.18974,-0.687404 2.72318,-1.242614 1.53344,-0.555211 3.19907,-0.555211 2.72317,0 4.15086,1.454123 1.42768,1.427685 1.42768,4.15086 v 7.69363 h -2.48523 l -0.23794,-1.61275 h -0.0793 q -1.0311,0.79316 -2.30016,1.37481 -1.24261,0.55521 -2.56454,0.55521 -0.95179,0 -1.74495,-0.29083 -0.79316,-0.26438 -1.37481,-0.76672 -0.58165,-0.50233 -0.89891,-1.18973 -0.31726,-0.713847 -0.31726,-1.559882 z m 2.93468,-0.237947 q 0,0.872473 0.66097,1.269052 0.6874,0.396577 1.66563,0.396577 0.97823,0 1.87714,-0.423015 0.92535,-0.449456 1.82426,-1.163299 v -2.749614 q -1.74494,0.132193 -2.90824,0.37014 -1.1633,0.211509 -1.8507,0.555211 -0.68741,0.343702 -0.97823,0.793158 -0.29083,0.423018 -0.29083,0.95179 z m 12.45259,-2.749615 q 0,-1.586316 0.4759,-2.855369 0.47589,-1.269053 1.26905,-2.141526 0.8196,-0.872474 1.8507,-1.348369 1.03111,-0.475895 2.14153,-0.475895 1.1633,0 1.98289,0.423018 0.84604,0.396579 1.6392,1.110421 l -0.1322,-2.194404 v -4.706071 h 3.06688 v 18.665649 h -2.51166 l -0.23795,-1.507 h -0.0793 q -0.76672,0.76672 -1.79782,1.29549 -1.00467,0.52878 -2.11509,0.52878 -1.24261,0 -2.27372,-0.44946 -1.03111,-0.47589 -1.77139,-1.34837 -0.71384,-0.87247 -1.11042,-2.115086 -0.39658,-1.269053 -0.39658,-2.881808 z m 3.1462,-0.02644 q 0,2.115089 0.81959,3.22551 0.8196,1.083984 2.3266,1.083984 1.61275,0 2.93468,-1.559879 V 92.83001 q -0.6874,-0.660965 -1.3748,-0.925351 -0.68741,-0.264386 -1.40125,-0.264386 -0.6874,0 -1.29549,0.290825 -0.58165,0.290824 -1.0311,0.846035 -0.44946,0.528772 -0.71385,1.32193 -0.26438,0.793158 -0.26438,1.824263 z m 12.58478,-6.477457 h 2.30016 l 0.23795,1.665632 h 0.0793 q 0.44946,-0.846035 1.08399,-1.401246 0.66096,-0.581649 1.77138,-0.581649 1.90358,0 2.37948,2.167965 0.44945,-0.925351 1.13686,-1.533438 0.71384,-0.634527 1.79782,-0.634527 1.37481,0 2.11509,1.083983 0.76672,1.057544 0.76672,3.014 v 9.200631 h -2.88181 v -8.962683 q 0,-1.718509 -1.08398,-1.718509 -0.52877,0 -0.92535,0.396579 -0.39658,0.396579 -0.76672,1.216175 v 9.068438 h -2.37948 v -8.962683 q 0,-1.718509 -1.11042,-1.718509 -0.52877,0 -0.89891,0.396579 -0.37014,0.396579 -0.74028,1.216175 v 9.068438 h -2.88181 z m 16.23329,6.503896 q 0,-1.586316 0.5552,-2.855369 0.5817,-1.269053 1.507,-2.141526 0.9254,-0.898913 2.1151,-1.348369 1.2162,-0.475895 2.4853,-0.475895 1.4541,0 2.5645,0.475895 1.1369,0.449456 1.9036,1.269053 0.7667,0.793158 1.1633,1.930018 0.3966,1.136859 0.3966,2.485228 0,0.449456 -0.053,0.819597 -0.026,0.37014 -0.079,0.608087 h -9.4386 q 0.2115,1.771387 1.4012,2.723176 1.1898,0.95179 2.9611,0.95179 1.0047,0 1.8772,-0.26439 0.8725,-0.290821 1.7714,-0.793154 l 1.0311,1.903584 q -1.0576,0.66096 -2.3531,1.08398 -1.2954,0.42302 -2.7231,0.42302 -1.4806,0 -2.7761,-0.44946 -1.2955,-0.47589 -2.2473,-1.34837 -0.9518,-0.87247 -1.507,-2.115087 -0.5552,-1.269053 -0.5552,-2.881808 z m 9.8881,-1.163298 q 0,-1.559878 -0.7932,-2.432352 -0.7932,-0.872473 -2.353,-0.872473 -0.661,0 -1.2691,0.211508 -0.6081,0.211509 -1.1104,0.634527 -0.4759,0.423017 -0.8196,1.031105 -0.3437,0.608088 -0.4495,1.427685 z"
       id="text29-0-0"
       style="font-weight:600;font-size:26.4386px;font-family:'Source Code Pro';-inkscape-font-specification:'Source Code Pro, Semi-Bold';fill:#161616;stroke-width:1.08782;stroke-linecap:square;stroke-miterlimit:3.1"
       aria-label="Readme"
       inkscape:export-filename="groupie_assets\Readme_Button.svg"
       inkscape:export-xdpi="96"
       inkscape:export-ydpi="96" /></g></svg>
