<?xml version="1.0" encoding="UTF-8" standalone="no"?>
<!-- Created with Inkscape (http://www.inkscape.org/) -->

<svg
   width="112.76868"
   height="39.584351"
   viewBox="0 0 112.76868 39.584351"
   version="1.1"
   id="svg1"
   xml:space="preserve"
   inkscape:version="1.4 (86a8ad7, 2024-10-11)"
   sodipodi:docname="drawing.svg"
   xmlns:inkscape="http://www.inkscape.org/namespaces/inkscape"
   xmlns:sodipodi="http://sodipodi.sourceforge.net/DTD/sodipodi-0.dtd"
   xmlns:xlink="http://www.w3.org/1999/xlink"
   xmlns="http://www.w3.org/2000/svg"
   xmlns:svg="http://www.w3.org/2000/svg"><sodipodi:namedview
     id="namedview1"
     pagecolor="#505050"
     bordercolor="#eeeeee"
     borderopacity="1"
     inkscape:showpageshadow="0"
     inkscape:pageopacity="0"
     inkscape:pagecheckerboard="0"
     inkscape:deskcolor="#505050"
     inkscape:document-units="px"
     showguides="true"
     inkscape:zoom="0.16834372"
     inkscape:cx="781.13994"
     inkscape:cy="1529.6086"
     inkscape:window-width="1366"
     inkscape:window-height="697"
     inkscape:window-x="-8"
     inkscape:window-y="-8"
     inkscape:window-maximized="1"
     inkscape:current-layer="layer1"
     showgrid="false"><sodipodi:guide
       position="768.23337,319.73706"
       orientation="1,0"
       id="guide17"
       inkscape:locked="false" /><inkscape:page
       x="0"
       y="0"
       width="112.76868"
       height="39.584351"
       id="page2"
       margin="0"
       bleed="0" /></sodipodi:namedview><defs
     id="defs1"><linearGradient
       id="linearGradient100"
       inkscape:collect="always"><stop
         style="stop-color:#f4b011;stop-opacity:1;"
         offset="0"
         id="stop100" /><stop
         style="stop-color:#f6e54b;stop-opacity:0.92070484;"
         offset="1"
         id="stop101" /></linearGradient><linearGradient
       inkscape:collect="always"
       xlink:href="#linearGradient100"
       id="linearGradient113"
       x1="1084.1321"
       y1="-304.90912"
       x2="1196.9008"
       y2="-304.90912"
       gradientUnits="userSpaceOnUse" /></defs><g
     inkscape:label="Layer 1"
     inkscape:groupmode="layer"
     id="layer1"
     transform="translate(-1084.1321,324.70129)"><g
       id="g186"><rect
         style="fill:url(#linearGradient113);fill-opacity:1;stroke:none;stroke-width:0.293375;stroke-linecap:square;stroke-miterlimit:3.1;stroke-dasharray:none;stroke-opacity:1"
         id="rect2-9-02-6-6-5-8-5-3-6"
         width="112.76868"
         height="39.584343"
         x="1084.1321"
         y="-324.70129"
         rx="0"
         ry="19.792171" /><path
         d="m 1097.5961,-304.93574 h 2.3948 q 1.8094,0 2.7407,-0.74506 0.958,-0.74505 0.958,-2.23515 0,-1.51671 -0.958,-2.10211 -0.9313,-0.5854 -2.7407,-0.5854 h -2.3948 z m 6.3329,9.25993 -3.7252,-6.81191 h -2.6077 v 6.81191 h -3.0867 v -17.40229 h 5.8008 q 1.3571,0 2.5279,0.26609 1.1708,0.26609 2.0222,0.8781 0.8781,0.5854 1.3571,1.56993 0.5056,0.98453 0.5056,2.44803 0,1.99567 -0.9579,3.21969 -0.9314,1.22401 -2.5013,1.75619 l 4.151,7.26426 z m 5.9605,-6.51921 q 0,-1.59654 0.5587,-2.87377 0.5854,-1.27723 1.5168,-2.15533 0.9313,-0.9047 2.1287,-1.35706 1.224,-0.47896 2.5012,-0.47896 1.4635,0 2.5811,0.47896 1.1442,0.45236 1.9158,1.27724 0.7717,0.79827 1.1708,1.94245 0.3992,1.14419 0.3992,2.50125 0,0.45235 -0.053,0.82488 -0.027,0.37252 -0.08,0.612 h -9.4994 q 0.2129,1.78281 1.4103,2.74073 1.1974,0.95793 2.9802,0.95793 1.0111,0 1.8892,-0.26609 0.8781,-0.2927 1.7828,-0.79827 l 1.0378,1.91584 q -1.0644,0.66523 -2.3682,1.09097 -1.3038,0.42575 -2.7407,0.42575 -1.4901,0 -2.794,-0.45236 -1.3038,-0.47896 -2.2617,-1.35706 -0.958,-0.87809 -1.5168,-2.12872 -0.5587,-1.27723 -0.5587,-2.90038 z m 9.9517,-1.17079 q 0,-1.56993 -0.7982,-2.44803 -0.7983,-0.8781 -2.3682,-0.8781 -0.6653,0 -1.2773,0.21287 -0.612,0.21288 -1.1176,0.63862 -0.4789,0.42574 -0.8248,1.03775 -0.346,0.61201 -0.4524,1.43689 z m 6.2531,4.17761 q 0,-1.09097 0.5056,-1.91585 0.5056,-0.85149 1.5966,-1.43688 1.0909,-0.5854 2.7939,-0.95793 1.703,-0.37252 4.1244,-0.53218 -0.08,-1.11758 -0.7983,-1.83602 -0.7184,-0.71844 -2.315,-0.71844 -1.1175,0 -2.2085,0.42574 -1.0644,0.39914 -2.0755,0.95793 l -1.1176,-2.0489 q 1.1974,-0.69183 2.7407,-1.25062 1.5434,-0.55879 3.2197,-0.55879 2.7408,0 4.1776,1.4635 1.4369,1.43688 1.4369,4.17761 v 7.74322 h -2.5012 l -0.2395,-1.62315 h -0.08 q -1.0378,0.79827 -2.315,1.38367 -1.2506,0.55879 -2.5811,0.55879 -0.9579,0 -1.7562,-0.2927 -0.7982,-0.26609 -1.3836,-0.77166 -0.5854,-0.50557 -0.9047,-1.19741 -0.3194,-0.71844 -0.3194,-1.56993 z m 2.9536,-0.23948 q 0,0.8781 0.6653,1.27723 0.6918,0.39914 1.6763,0.39914 0.9846,0 1.8893,-0.42575 0.9313,-0.45235 1.836,-1.17079 v -2.76734 q -1.7562,0.13305 -2.927,0.37253 -1.1708,0.21287 -1.8626,0.55879 -0.6919,0.34591 -0.9846,0.79827 -0.2927,0.42574 -0.2927,0.95792 z m 12.5329,-2.76734 q 0,-1.59654 0.479,-2.87377 0.4789,-1.27723 1.2772,-2.15533 0.8249,-0.87809 1.8626,-1.35706 1.0378,-0.47896 2.1554,-0.47896 1.1707,0 1.9956,0.42575 0.8515,0.39913 1.6498,1.11757 l -0.1331,-2.20854 v -4.73641 h 3.0867 v 18.78596 h -2.5279 l -0.2395,-1.51671 h -0.08 q -0.7716,0.77166 -1.8094,1.30384 -1.0111,0.53218 -2.1287,0.53218 -1.2506,0 -2.2884,-0.45236 -1.0377,-0.47896 -1.7828,-1.35706 -0.7184,-0.87809 -1.1176,-2.12872 -0.3991,-1.27723 -0.3991,-2.90038 z m 3.1665,-0.0266 q 0,2.12872 0.8248,3.2463 0.8249,1.09097 2.3416,1.09097 1.6232,0 2.9536,-1.56993 v -5.88059 q -0.6918,-0.66522 -1.3836,-0.93131 -0.6919,-0.26609 -1.4103,-0.26609 -0.6918,0 -1.3038,0.2927 -0.5854,0.29269 -1.0378,0.85148 -0.4524,0.53218 -0.7184,1.33045 -0.2661,0.79827 -0.2661,1.83602 z m 12.6659,-6.5192 h 2.3149 l 0.2395,1.67637 h 0.08 q 0.4523,-0.85149 1.0909,-1.41028 0.6652,-0.5854 1.7828,-0.5854 1.9159,0 2.3948,2.18194 0.4524,-0.93132 1.1442,-1.54332 0.7185,-0.63862 1.8094,-0.63862 1.3837,0 2.1288,1.09097 0.7716,1.06436 0.7716,3.03343 v 9.25993 h -2.9004 v -9.02045 q 0,-1.72959 -1.0909,-1.72959 -0.5322,0 -0.9314,0.39914 -0.3991,0.39913 -0.7716,1.22401 v 9.12689 h -2.3948 v -9.02045 q 0,-1.72959 -1.1176,-1.72959 -0.5322,0 -0.9047,0.39914 -0.3725,0.39913 -0.7451,1.22401 v 9.12689 h -2.9003 z m 16.3379,6.54581 q 0,-1.59654 0.5588,-2.87377 0.5854,-1.27723 1.5167,-2.15533 0.9313,-0.9047 2.1287,-1.35706 1.224,-0.47896 2.5013,-0.47896 1.4635,0 2.581,0.47896 1.1442,0.45236 1.9159,1.27724 0.7716,0.79827 1.1708,1.94245 0.3991,1.14419 0.3991,2.50125 0,0.45235 -0.053,0.82488 -0.027,0.37252 -0.08,0.612 h -9.4994 q 0.2128,1.78281 1.4102,2.74073 1.1974,0.95793 2.9802,0.95793 1.0112,0 1.8893,-0.26609 0.8781,-0.2927 1.7828,-0.79827 l 1.0377,1.91584 q -1.0643,0.66523 -2.3682,1.09097 -1.3038,0.42575 -2.7407,0.42575 -1.4901,0 -2.7939,-0.45236 -1.3039,-0.47896 -2.2618,-1.35706 -0.9579,-0.87809 -1.5167,-2.12872 -0.5588,-1.27723 -0.5588,-2.90038 z m 9.9518,-1.17079 q 0,-1.56993 -0.7983,-2.44803 -0.7983,-0.8781 -2.3682,-0.8781 -0.6652,0 -1.2772,0.21287 -0.612,0.21288 -1.1176,0.63862 -0.479,0.42574 -0.8249,1.03775 -0.3459,0.61201 -0.4523,1.43689 z"
         id="text29-0-8-6"
         style="font-weight:600;font-size:26.609px;font-family:'Source Code Pro';-inkscape-font-specification:'Source Code Pro, Semi-Bold';fill:#f9f9f9;stroke-width:1.09483;stroke-linecap:square;stroke-miterlimit:3.1"
         aria-label="Readme" /></g></g></svg>
