<?xml version="1.0" encoding="UTF-8" standalone="no"?>
<!-- Created with Inkscape (http://www.inkscape.org/) -->

<svg
   width="884.9729"
   height="177.18826"
   viewBox="0 0 884.9729 177.18826"
   version="1.1"
   id="svg1"
   xml:space="preserve"
   inkscape:version="1.4 (86a8ad7, 2024-10-11)"
   sodipodi:docname="drawing.svg"
   xmlns:inkscape="http://www.inkscape.org/namespaces/inkscape"
   xmlns:sodipodi="http://sodipodi.sourceforge.net/DTD/sodipodi-0.dtd"
   xmlns:xlink="http://www.w3.org/1999/xlink"
   xmlns="http://www.w3.org/2000/svg"
   xmlns:svg="http://www.w3.org/2000/svg"><sodipodi:namedview
     id="namedview1"
     pagecolor="#505050"
     bordercolor="#eeeeee"
     borderopacity="1"
     inkscape:showpageshadow="0"
     inkscape:pageopacity="0"
     inkscape:pagecheckerboard="0"
     inkscape:deskcolor="#505050"
     inkscape:document-units="px"
     showguides="true"
     inkscape:zoom="0.16834372"
     inkscape:cx="781.13994"
     inkscape:cy="1529.6086"
     inkscape:window-width="1366"
     inkscape:window-height="697"
     inkscape:window-x="-8"
     inkscape:window-y="-8"
     inkscape:window-maximized="1"
     inkscape:current-layer="layer1"
     showgrid="false"><sodipodi:guide
       position="1334.8519,964.00606"
       orientation="1,0"
       id="guide17"
       inkscape:locked="false" /><inkscape:page
       x="0"
       y="0"
       width="884.9729"
       height="177.18826"
       id="page2"
       margin="0"
       bleed="0" /></sodipodi:namedview><defs
     id="defs1"><linearGradient
       id="linearGradient100"
       inkscape:collect="always"><stop
         style="stop-color:#f4b011;stop-opacity:1;"
         offset="0"
         id="stop100" /><stop
         style="stop-color:#f6e54b;stop-opacity:0.92070484;"
         offset="1"
         id="stop101" /></linearGradient><linearGradient
       id="linearGradient82"
       inkscape:collect="always"><stop
         style="stop-color:#141414;stop-opacity:1;"
         offset="0"
         id="stop81" /><stop
         style="stop-color:#2c2c2c;stop-opacity:1;"
         offset="1"
         id="stop82" /></linearGradient><clipPath
       clipPathUnits="userSpaceOnUse"
       id="clipPath12-1-9-3"><rect
         style="opacity:0.842697;fill:#ea4949;fill-opacity:1;stroke:none;stroke-width:2.41657;stroke-linecap:square;stroke-miterlimit:3.1;stroke-opacity:1"
         id="rect12-5-8-4"
         width="2157.2766"
         height="956.70538"
         x="-46.27977"
         y="-400.76025"
         ry="17.215876" /></clipPath><linearGradient
       inkscape:collect="always"
       xlink:href="#linearGradient82"
       id="linearGradient81"
       x1="-100.36615"
       y1="-1005.874"
       x2="1289.7891"
       y2="-1005.874"
       gradientUnits="userSpaceOnUse" /><clipPath
       clipPathUnits="userSpaceOnUse"
       id="clipPath12-1-9-3-0"><rect
         style="opacity:0.842697;fill:#ea4949;fill-opacity:1;stroke:none;stroke-width:2.41657;stroke-linecap:square;stroke-miterlimit:3.1;stroke-opacity:1"
         id="rect12-5-8-4-1"
         width="2157.2766"
         height="956.70538"
         x="-46.27977"
         y="-400.76025"
         ry="17.215876" /></clipPath><filter
       inkscape:collect="always"
       style="color-interpolation-filters:sRGB"
       id="filter95"
       x="-0.0036228603"
       y="-0.019746584"
       width="1.0072457"
       height="1.0394932"><feGaussianBlur
         inkscape:collect="always"
         stdDeviation="2.0984743"
         id="feGaussianBlur95" /></filter><linearGradient
       inkscape:collect="always"
       xlink:href="#linearGradient82"
       id="linearGradient97"
       gradientUnits="userSpaceOnUse"
       x1="-100.36615"
       y1="-1005.874"
       x2="1289.7891"
       y2="-1005.874" /><linearGradient
       inkscape:collect="always"
       xlink:href="#linearGradient82"
       id="linearGradient98"
       gradientUnits="userSpaceOnUse"
       x1="-100.36615"
       y1="-1005.874"
       x2="1289.7891"
       y2="-1005.874" /><linearGradient
       inkscape:collect="always"
       xlink:href="#linearGradient82"
       id="linearGradient99"
       gradientUnits="userSpaceOnUse"
       x1="-100.36615"
       y1="-1005.874"
       x2="1289.7891"
       y2="-1005.874" /><linearGradient
       inkscape:collect="always"
       xlink:href="#linearGradient100"
       id="linearGradient101"
       x1="1258.7051"
       y1="-978.92859"
       x2="1244.3029"
       y2="-832.41333"
       gradientUnits="userSpaceOnUse" /><linearGradient
       inkscape:collect="always"
       xlink:href="#linearGradient100"
       id="linearGradient102"
       gradientUnits="userSpaceOnUse"
       x1="1258.7051"
       y1="-978.92859"
       x2="1518.193"
       y2="-984.83917" /><linearGradient
       inkscape:collect="always"
       xlink:href="#linearGradient100"
       id="linearGradient103"
       gradientUnits="userSpaceOnUse"
       x1="1258.7051"
       y1="-978.92859"
       x2="1244.3029"
       y2="-832.41333" /><linearGradient
       inkscape:collect="always"
       xlink:href="#linearGradient100"
       id="linearGradient104"
       gradientUnits="userSpaceOnUse"
       x1="1258.7051"
       y1="-978.92859"
       x2="1244.3029"
       y2="-832.41333" /><linearGradient
       inkscape:collect="always"
       xlink:href="#linearGradient100"
       id="linearGradient105"
       gradientUnits="userSpaceOnUse"
       x1="1258.7051"
       y1="-978.92859"
       x2="1244.3029"
       y2="-832.41333" /><linearGradient
       inkscape:collect="always"
       xlink:href="#linearGradient100"
       id="linearGradient106"
       gradientUnits="userSpaceOnUse"
       x1="1258.7051"
       y1="-978.92859"
       x2="1244.3029"
       y2="-832.41333" /><filter
       inkscape:collect="always"
       style="color-interpolation-filters:sRGB"
       id="filter106"
       x="-0.010472331"
       y="-0.057079971"
       width="1.0209446"
       height="1.11416"><feGaussianBlur
         inkscape:collect="always"
         stdDeviation="3.9674279"
         id="feGaussianBlur106" /></filter></defs><g
     inkscape:label="Layer 1"
     inkscape:groupmode="layer"
     id="layer1"
     transform="translate(-517.51355,-181.96378)"><g
       id="g180"><g
         id="g24-4-3-5-7"
         style="fill:url(#linearGradient101);stroke:none;stroke-width:4.71662;stroke-dasharray:none;stroke-opacity:1;filter:url(#filter106)"
         transform="matrix(0.62354024,0,0,0.62354024,247.89301,781.20039)"><g
           id="g43-2-2-5-5"
           style="fill:url(#linearGradient106);fill-opacity:1;stroke:none;stroke-width:4.71662;stroke-dasharray:none;stroke-opacity:1"><g
             id="g94"
             style="fill:url(#linearGradient105);fill-opacity:1;filter:url(#filter95)"
             transform="translate(547.32712,186.93326)"><g
               id="g102"
               style="fill:url(#linearGradient104)"><path
                 d="m -36.887938,-954.70033 q 8.912414,0 11.276932,-3.27395 2.546404,-3.27395 2.546404,-11.09504 v -35.28588 h -11.640704 v -4.0015 h 52.383168 v 4.0015 h -7.093554 v 51.29184 H 7.8560183 q -3.273948,-4.54715 -9.2761861,-4.54715 -2.546404,0 -15.2784242,3.27395 -12.550134,3.27395 -21.462548,3.27395 -29.647418,0 -46.017158,-16.00597 -16.187852,-16.00597 -16.187852,-48.01792 0,-32.1938 16.915396,-49.6549 17.097284,-17.461 45.835272,-17.461 11.095046,0 22.190092,2.9102 11.2769322,2.7282 13.0957922,2.7282 1.81886004,0 2.72829005,-0.7275 0.90943005,-0.9094 2.00074605,-2.9102 h 2.000746 l 1.455088,39.4693 h -3.273948 q -8.9124141,-17.643 -18.0067143,-27.6467 -8.912414,-10.1856 -20.00746,-10.1856 -27.828558,0 -27.828558,54.3839 v 14.369 q 0,27.28291 6.729782,41.28813 6.911668,13.82334 19.643688,13.82334 z M 86.2488,-1034.3664 q -6.729782,0 -11.82259,8.7305 -5.092808,8.7306 -5.092808,20.735 v 48.74548 h 12.913906 v 3.27395 H 25.498876 v -3.27395 h 10.00373 v -80.02988 h -10.00373 v -3.2739 h 43.834526 v 17.461 q 2.364518,-9.2761 9.0943,-14.1871 6.729782,-5.0928 15.278424,-5.0928 8.548644,0 13.823334,4.911 5.45658,4.729 5.45658,13.6414 0,8.7305 -4.00149,13.4596 -4.00149,4.729 -12.368248,4.729 -8.18487,0 -12.186362,-5.4566 -3.819606,-5.4566 -0.90943,-15.0965 h 6.547896 q 4.54715,-9.2762 -3.819606,-9.2762 z m 87.12369,45.65339 v -15.46029 q 0,-17.643 -2.00075,-25.6459 -1.81886,-8.1849 -8.73052,-8.1849 -4.0015,0 -6.5479,2.3645 -2.36452,2.1826 -3.45583,7.4573 -1.63698,8.1849 -1.63698,24.9184 v 14.18712 q 0,19.82557 1.09132,23.82706 1.2732,4.00149 2.5464,6.5479 2.00075,4.36526 7.8211,4.36526 7.09355,0 9.27619,-8.18487 1.63697,-5.82035 1.63697,-26.19158 z m -11.27693,37.6504 q -22.73575,0 -34.37646,-11.6407 -11.6407,-11.64071 -11.6407,-33.28514 0,-21.82635 12.36825,-33.46705 12.55013,-11.8226 35.104,-11.8226 22.55386,0 33.64891,10.9132 11.09504,10.7313 11.09504,32.92136 0,46.38093 -46.19904,46.38093 z m 157.69504,-1.81886 h -41.47001 l -2.00075,-13.27768 q -2.91017,7.27544 -8.73052,11.27693 -5.63847,3.81961 -16.9154,3.81961 -28.19233,0 -28.19233,-30.37496 v -54.74773 h -10.18562 v -3.2739 h 44.01641 v 62.38689 q 0,10.91316 1.45509,14.369 1.63698,3.45583 6.18413,3.45583 4.72903,0 8.36675,-5.63847 3.63772,-5.63846 3.63772,-15.64219 v -55.65716 h -8.36675 v -3.2739 h 42.19755 v 83.30378 h 10.00373 z m 70.02603,-48.92733 q 0,-18.7343 -1.81886,-25.1003 -1.81886,-6.5479 -7.09355,-6.5479 -5.27469,0 -9.45807,6.9117 -4.18338,6.7298 -4.18338,18.1886 v 33.28514 q 0,7.8211 3.09206,13.27768 3.09206,5.45658 9.0943,5.45658 6.00224,0 8.18487,-8.00299 2.18263,-8.00298 2.18263,-28.01044 z m -22.91763,-37.6504 v 14.369 q 7.09355,-16.1879 25.10027,-16.1879 15.64219,0 24.19083,11.277 8.73053,11.2769 8.73053,34.19453 0,22.91764 -9.45807,33.8308 -9.27619,10.91316 -28.01044,10.91316 -8.73053,0 -13.0958,-2.18263 -4.36526,-2.18263 -7.09355,-6.72978 v 47.10847 h 23.46329 v 3.27395 h -67.29782 v -3.27395 h 10.00373 v -123.31875 h -9.63996 v -3.2739 z m 90.21534,-12.5501 q -9.63996,0 -13.82334,-4.911 -4.00149,-4.9109 -4.00149,-12.1863 0,-7.2755 4.36526,-12.0045 4.54715,-4.729 13.64145,-4.729 9.0943,0 13.82334,4.3652 4.72904,4.1834 4.72904,12.1864 0,7.8211 -4.54715,12.5501 -4.54715,4.7291 -14.18711,4.7291 z m -27.46479,12.5501 h 44.56207 v 83.30378 h 10.18562 v 3.27395 H 430.3771 v -3.27395 h 10.00373 v -80.02988 h -10.73128 z m 106.22134,88.39659 q -23.46329,0 -35.28588,-12.00448 -11.64071,-12.18636 -11.64071,-33.64891 0,-21.6444 13.09579,-33.1032 13.27768,-11.4589 33.64891,-11.4589 41.28813,0 39.65115,41.47004 H 524.0483 v 7.09356 q 0,17.82482 4.54715,26.91912 4.54715,9.0943 15.82408,9.0943 21.09878,0 27.64667,-22.55386 l 3.27395,0.54566 q -3.45583,13.09579 -12.55013,20.37123 -8.91242,7.27544 -26.91913,7.27544 z m -11.6407,-52.38319 h 18.73425 v -8.9124 q 0,-14.7328 -1.81886,-20.0075 -1.63697,-5.4565 -6.91166,-5.4565 -5.09281,0 -7.63922,5.8203 -2.36451,5.6385 -2.36451,19.6437 z m 204.25815,-76.7559 1.81886,45.6534 h -3.45583 q -8.00299,-24.1908 -14.18711,-32.9214 -6.18412,-8.9124 -17.82483,-8.9124 h -2.18263 v 119.68102 h 15.46031 v 3.81961 h -66.38839 v -3.81961 h 15.46031 v -119.68102 h -2.36452 q -11.6407,0 -18.00671,9.2762 -6.36601,9.0943 -14.00522,32.5576 h -3.45584 l 1.81886,-45.6534 z m 67.47974,45.8353 q -6.72978,0 -11.82259,8.7305 -5.0928,8.7306 -5.0928,20.735 v 48.74548 h 12.9139 v 3.27395 h -56.74843 v -3.27395 h 10.00373 v -80.02988 h -10.00373 v -3.2739 h 43.83453 v 17.461 q 2.36451,-9.2761 9.0943,-14.1871 6.72978,-5.0928 15.27842,-5.0928 8.54864,0 13.82334,4.911 5.45658,4.729 5.45658,13.6414 0,8.7305 -4.0015,13.4596 -4.00149,4.729 -12.36824,4.729 -8.18487,0 -12.18637,-5.4566 -3.8196,-5.4566 -0.90943,-15.0965 h 6.5479 q 4.54715,-9.2762 -3.81961,-9.2762 z m 70.20826,38.74172 h 5.2747 v -14.00522 q 0,-17.2792 -2.00075,-23.0995 -1.81886,-6.0023 -7.27544,-6.0023 -3.27395,0 -6.00224,1.8189 -2.5464,1.637 -2.5464,4.729 0,2.9102 1.09131,6.0023 h 4.54715 q 1.45509,3.8196 1.45509,9.2762 0,5.2747 -4.54715,9.2761 -4.54715,3.8196 -11.45882,3.8196 -15.64219,0 -15.64219,-15.0965 0,-22.372 38.01417,-22.372 21.64444,0 29.82931,7.4574 8.36675,7.2754 8.36675,26.9191 v 36.92285 q 0,9.45807 5.2747,9.45807 6.18412,0 7.27544,-18.73426 l 2.72829,0.18189 q -0.72755,16.00596 -6.00224,22.0082 -5.2747,6.00224 -17.27917,6.00224 -21.82632,0 -25.10027,-13.45956 -2.36452,6.91166 -7.09355,10.18561 -4.72904,3.27395 -13.82334,3.27395 -26.91913,0 -26.91913,-22.00821 0,-12.9139 10.18562,-17.64294 10.3675,-4.91092 31.64816,-4.91092 z m -7.27544,22.37198 q 0,9.45807 0.90943,12.18636 1.09132,2.72829 3.81961,2.72829 2.91017,0 5.27469,-4.54715 2.54641,-4.72904 2.54641,-12.91391 v -16.91539 h -1.27321 q -11.27693,0 -11.27693,16.55162 z m 114.40623,-64.7514 q -8.00299,0 -11.45882,8.7305 -3.45583,8.7305 -3.45583,28.9199 v 9.45806 q 0,18.00671 4.00149,25.82781 4.00149,7.8211 14.73276,7.8211 10.73128,0 17.09729,-7.27544 6.36598,-7.27544 8.18488,-16.55163 l 3.2739,0.36377 q -3.4558,15.6422 -12.73198,22.55387 -9.45808,7.09355 -26.0097,7.09355 -21.09878,0 -32.37571,-11.27693 -11.27693,-11.45882 -11.27693,-33.28514 0,-22.00822 12.73202,-33.83082 12.9139,-11.8226 35.83154,-11.8226 16.18785,0 24.7365,6.366 8.54866,6.1842 8.54866,15.6422 0,9.4581 -4.1834,13.8234 -4.00149,4.3652 -11.27693,4.3652 -7.09356,0 -11.45882,-3.8196 -4.36526,-3.8196 -4.36526,-11.2769 0,-3.2739 0.90943,-6.5479 h 6.00223 q 1.27321,-3.6377 1.27321,-6.5479 0,-8.7305 -8.73053,-8.7305 z m 182.97737,86.94149 q -23.4633,0 -35.2859,-12.00448 -11.6407,-12.18636 -11.6407,-33.64891 0,-21.6444 13.0958,-33.1032 13.2777,-11.4589 33.6489,-11.4589 41.2882,0 39.6512,41.47004 h -51.2919 v 7.09356 q 0,17.82482 4.5472,26.91912 4.5471,9.0943 15.8241,9.0943 21.0987,0 27.6466,-22.55386 l 3.274,0.54566 q -3.4558,13.09579 -12.5501,20.37123 -8.9125,7.27544 -26.9192,7.27544 z m -11.6407,-52.38319 h 18.7343 v -8.9124 q 0,-14.7328 -1.8189,-20.0075 -1.637,-5.4565 -6.9116,-5.4565 -5.0929,0 -7.6393,5.8203 -2.3645,5.6385 -2.3645,19.6437 z m 118.408,-30.9206 q -6.7298,0 -11.8226,8.7305 -5.0928,8.7306 -5.0928,20.735 v 48.74548 h 12.9139 v 3.27395 h -56.7484 v -3.27395 h 10.0037 v -80.02988 h -10.0037 v -3.2739 h 43.8345 v 17.461 q 2.3645,-9.2761 9.0943,-14.1871 6.7298,-5.0928 15.2785,-5.0928 8.5486,0 13.8233,4.911 5.4566,4.729 5.4566,13.6414 0,8.7305 -4.0015,13.4596 -4.0015,4.729 -12.3683,4.729 -8.1848,0 -12.1863,-5.4566 -3.8196,-5.4566 -0.9095,-15.0965 h 6.5479 q 4.5472,-9.2762 -3.8196,-9.2762 z"
                 id="text29-2-5-3-5-8-3-9"
                 style="font-size:181.886px;font-family:'Abril Fatface';-inkscape-font-specification:'Abril Fatface, Normal';fill:url(#linearGradient103);fill-opacity:1;stroke:none;stroke-width:4.71662;stroke-linecap:square;stroke-miterlimit:3.1;stroke-dasharray:none;stroke-opacity:1"
                 aria-label="Groupie Trac   er" /><path
                 style="fill:url(#linearGradient102);fill-opacity:1;stroke:none;stroke-width:4.71662;stroke-dasharray:none;stroke-opacity:1"
                 d="m 1442.7272,295.3065 c -1.4508,-7.9479 -2.1447,-16.58966 -3.5324,-24.66374 12.2372,-12.30032 26.493,-28.63768 28.0069,-54.68913 0.5045,-8.95717 -1.3246,-16.46351 -3.5324,-24.66373 -1.5139,-5.67708 -5.5509,-20.87901 -11.6064,-18.41895 -21.1945,8.64176 -26.1777,50.46286 -20.1852,77.01897 -14.6343,15.07578 -39.3611,30.21463 -43.0827,59.4831 -1.9554,15.39119 2.9647,28.95308 9.9664,38.85642 9.0203,12.80494 26.4299,24.28526 48.5075,19.23896 2.7124,18.48203 9.588,45.66889 -8.3264,53.42758 -6.5602,2.83853 -21.3206,3.09084 -22.7714,-5.36168 19.7436,3.09084 19.6805,-24.60067 5.6771,-27.88075 -11.6065,-2.77546 -18.5451,8.57869 -19.0498,16.08505 -0.9461,14.06651 12.3635,24.22216 26.9977,23.90678 15.7066,-0.31541 26.8084,-9.90334 26.3668,-29.71001 -0.2522,-10.97568 -3.4692,-19.4913 -3.9739,-32.04393 12.6788,-6.05554 24.0329,-14.7604 25.5468,-32.04392 1.7662,-20.56364 -11.1018,-39.86566 -35.0086,-38.54102 z m 3.4693,-96.69949 c 5.6771,-5.48783 15.2651,-4.92013 15.7067,5.23553 0.4415,9.84028 -4.6679,18.60818 -9.3988,25.42068 -4.9202,7.0648 -10.0926,13.18341 -16.5266,16.90507 -3.5955,-15.39119 1.1985,-38.73028 10.2187,-47.56128 z m -47.8136,126.53568 c 0.757,-13.05728 6.8125,-22.58214 13.2466,-30.27774 6.9386,-8.32638 15.328,-14.6973 23.2129,-20.94211 1.3877,7.06484 2.0815,14.82347 3.0277,22.32983 -10.6603,4.73089 -22.7082,13.12035 -22.2036,30.3408 0.1891,5.9294 2.6493,11.66953 5.9925,16.14812 3.0908,4.03703 7.7586,9.02024 13.2464,8.26331 -0.2522,-3.34318 -4.2893,-4.16321 -6.3078,-6.18171 -10.1557,-9.77717 -2.5232,-29.96232 11.7326,-31.66545 1.9554,16.71581 4.2893,32.9901 6.3709,49.57976 -30.3408,4.60473 -49.769,-14.31885 -48.3182,-37.59481 z m 52.8599,35.95479 c -1.7031,-16.46353 -4.5417,-31.98086 -6.1186,-48.57052 6.1186,0.75692 11.3541,3.02777 15.0126,6.43401 12.6159,11.85878 7.3803,37.84716 -8.894,42.13651 z"
                 id="path2-34-9-1-0-1-1-1"
                 clip-path="url(#clipPath12-1-9-3-0)"
                 transform="translate(-373.31845,-1306.0022)" /></g></g></g></g><g
         id="g24-4-3-5"
         style="fill:url(#linearGradient81);stroke:none;stroke-width:4.71662;stroke-dasharray:none;stroke-opacity:1"
         transform="matrix(0.62354024,0,0,0.62354024,589.17346,898.12527)"><g
           id="g43-2-2-5"
           style="fill:url(#linearGradient99);fill-opacity:1;stroke:none;stroke-width:4.71662;stroke-dasharray:none;stroke-opacity:1"><path
             d="m -36.887938,-954.70033 q 8.912414,0 11.276932,-3.27395 2.546404,-3.27395 2.546404,-11.09504 v -35.28588 h -11.640704 v -4.0015 h 52.383168 v 4.0015 h -7.093554 v 51.29184 H 7.8560183 q -3.273948,-4.54715 -9.2761861,-4.54715 -2.546404,0 -15.2784242,3.27395 -12.550134,3.27395 -21.462548,3.27395 -29.647418,0 -46.017158,-16.00597 -16.187852,-16.00597 -16.187852,-48.01792 0,-32.1938 16.915396,-49.6549 17.097284,-17.461 45.835272,-17.461 11.095046,0 22.190092,2.9102 11.2769322,2.7282 13.0957922,2.7282 1.81886004,0 2.72829005,-0.7275 0.90943005,-0.9094 2.00074605,-2.9102 h 2.000746 l 1.455088,39.4693 h -3.273948 q -8.9124141,-17.643 -18.0067143,-27.6467 -8.912414,-10.1856 -20.00746,-10.1856 -27.828558,0 -27.828558,54.3839 v 14.369 q 0,27.28291 6.729782,41.28813 6.911668,13.82334 19.643688,13.82334 z M 86.2488,-1034.3664 q -6.729782,0 -11.82259,8.7305 -5.092808,8.7306 -5.092808,20.735 v 48.74548 h 12.913906 v 3.27395 H 25.498876 v -3.27395 h 10.00373 v -80.02988 h -10.00373 v -3.2739 h 43.834526 v 17.461 q 2.364518,-9.2761 9.0943,-14.1871 6.729782,-5.0928 15.278424,-5.0928 8.548644,0 13.823334,4.911 5.45658,4.729 5.45658,13.6414 0,8.7305 -4.00149,13.4596 -4.00149,4.729 -12.368248,4.729 -8.18487,0 -12.186362,-5.4566 -3.819606,-5.4566 -0.90943,-15.0965 h 6.547896 q 4.54715,-9.2762 -3.819606,-9.2762 z m 87.12369,45.65339 v -15.46029 q 0,-17.643 -2.00075,-25.6459 -1.81886,-8.1849 -8.73052,-8.1849 -4.0015,0 -6.5479,2.3645 -2.36452,2.1826 -3.45583,7.4573 -1.63698,8.1849 -1.63698,24.9184 v 14.18712 q 0,19.82557 1.09132,23.82706 1.2732,4.00149 2.5464,6.5479 2.00075,4.36526 7.8211,4.36526 7.09355,0 9.27619,-8.18487 1.63697,-5.82035 1.63697,-26.19158 z m -11.27693,37.6504 q -22.73575,0 -34.37646,-11.6407 -11.6407,-11.64071 -11.6407,-33.28514 0,-21.82635 12.36825,-33.46705 12.55013,-11.8226 35.104,-11.8226 22.55386,0 33.64891,10.9132 11.09504,10.7313 11.09504,32.92136 0,46.38093 -46.19904,46.38093 z m 157.69504,-1.81886 h -41.47001 l -2.00075,-13.27768 q -2.91017,7.27544 -8.73052,11.27693 -5.63847,3.81961 -16.9154,3.81961 -28.19233,0 -28.19233,-30.37496 v -54.74773 h -10.18562 v -3.2739 h 44.01641 v 62.38689 q 0,10.91316 1.45509,14.369 1.63698,3.45583 6.18413,3.45583 4.72903,0 8.36675,-5.63847 3.63772,-5.63846 3.63772,-15.64219 v -55.65716 h -8.36675 v -3.2739 h 42.19755 v 83.30378 h 10.00373 z m 70.02603,-48.92733 q 0,-18.7343 -1.81886,-25.1003 -1.81886,-6.5479 -7.09355,-6.5479 -5.27469,0 -9.45807,6.9117 -4.18338,6.7298 -4.18338,18.1886 v 33.28514 q 0,7.8211 3.09206,13.27768 3.09206,5.45658 9.0943,5.45658 6.00224,0 8.18487,-8.00299 2.18263,-8.00298 2.18263,-28.01044 z m -22.91763,-37.6504 v 14.369 q 7.09355,-16.1879 25.10027,-16.1879 15.64219,0 24.19083,11.277 8.73053,11.2769 8.73053,34.19453 0,22.91764 -9.45807,33.8308 -9.27619,10.91316 -28.01044,10.91316 -8.73053,0 -13.0958,-2.18263 -4.36526,-2.18263 -7.09355,-6.72978 v 47.10847 h 23.46329 v 3.27395 h -67.29782 v -3.27395 h 10.00373 v -123.31875 h -9.63996 v -3.2739 z m 90.21534,-12.5501 q -9.63996,0 -13.82334,-4.911 -4.00149,-4.9109 -4.00149,-12.1863 0,-7.2755 4.36526,-12.0045 4.54715,-4.729 13.64145,-4.729 9.0943,0 13.82334,4.3652 4.72904,4.1834 4.72904,12.1864 0,7.8211 -4.54715,12.5501 -4.54715,4.7291 -14.18711,4.7291 z m -27.46479,12.5501 h 44.56207 v 83.30378 h 10.18562 v 3.27395 H 430.3771 v -3.27395 h 10.00373 v -80.02988 h -10.73128 z m 106.22134,88.39659 q -23.46329,0 -35.28588,-12.00448 -11.64071,-12.18636 -11.64071,-33.64891 0,-21.6444 13.09579,-33.1032 13.27768,-11.4589 33.64891,-11.4589 41.28813,0 39.65115,41.47004 H 524.0483 v 7.09356 q 0,17.82482 4.54715,26.91912 4.54715,9.0943 15.82408,9.0943 21.09878,0 27.64667,-22.55386 l 3.27395,0.54566 q -3.45583,13.09579 -12.55013,20.37123 -8.91242,7.27544 -26.91913,7.27544 z m -11.6407,-52.38319 h 18.73425 v -8.9124 q 0,-14.7328 -1.81886,-20.0075 -1.63697,-5.4565 -6.91166,-5.4565 -5.09281,0 -7.63922,5.8203 -2.36451,5.6385 -2.36451,19.6437 z m 204.25815,-76.7559 1.81886,45.6534 h -3.45583 q -8.00299,-24.1908 -14.18711,-32.9214 -6.18412,-8.9124 -17.82483,-8.9124 h -2.18263 v 119.68102 h 15.46031 v 3.81961 h -66.38839 v -3.81961 h 15.46031 v -119.68102 h -2.36452 q -11.6407,0 -18.00671,9.2762 -6.36601,9.0943 -14.00522,32.5576 h -3.45584 l 1.81886,-45.6534 z m 67.47974,45.8353 q -6.72978,0 -11.82259,8.7305 -5.0928,8.7306 -5.0928,20.735 v 48.74548 h 12.9139 v 3.27395 h -56.74843 v -3.27395 h 10.00373 v -80.02988 h -10.00373 v -3.2739 h 43.83453 v 17.461 q 2.36451,-9.2761 9.0943,-14.1871 6.72978,-5.0928 15.27842,-5.0928 8.54864,0 13.82334,4.911 5.45658,4.729 5.45658,13.6414 0,8.7305 -4.0015,13.4596 -4.00149,4.729 -12.36824,4.729 -8.18487,0 -12.18637,-5.4566 -3.8196,-5.4566 -0.90943,-15.0965 h 6.5479 q 4.54715,-9.2762 -3.81961,-9.2762 z m 70.20826,38.74172 h 5.2747 v -14.00522 q 0,-17.2792 -2.00075,-23.0995 -1.81886,-6.0023 -7.27544,-6.0023 -3.27395,0 -6.00224,1.8189 -2.5464,1.637 -2.5464,4.729 0,2.9102 1.09131,6.0023 h 4.54715 q 1.45509,3.8196 1.45509,9.2762 0,5.2747 -4.54715,9.2761 -4.54715,3.8196 -11.45882,3.8196 -15.64219,0 -15.64219,-15.0965 0,-22.372 38.01417,-22.372 21.64444,0 29.82931,7.4574 8.36675,7.2754 8.36675,26.9191 v 36.92285 q 0,9.45807 5.2747,9.45807 6.18412,0 7.27544,-18.73426 l 2.72829,0.18189 q -0.72755,16.00596 -6.00224,22.0082 -5.2747,6.00224 -17.27917,6.00224 -21.82632,0 -25.10027,-13.45956 -2.36452,6.91166 -7.09355,10.18561 -4.72904,3.27395 -13.82334,3.27395 -26.91913,0 -26.91913,-22.00821 0,-12.9139 10.18562,-17.64294 10.3675,-4.91092 31.64816,-4.91092 z m -7.27544,22.37198 q 0,9.45807 0.90943,12.18636 1.09132,2.72829 3.81961,2.72829 2.91017,0 5.27469,-4.54715 2.54641,-4.72904 2.54641,-12.91391 v -16.91539 h -1.27321 q -11.27693,0 -11.27693,16.55162 z m 114.40623,-64.7514 q -8.00299,0 -11.45882,8.7305 -3.45583,8.7305 -3.45583,28.9199 v 9.45806 q 0,18.00671 4.00149,25.82781 4.00149,7.8211 14.73276,7.8211 10.73128,0 17.09729,-7.27544 6.36598,-7.27544 8.18488,-16.55163 l 3.2739,0.36377 q -3.4558,15.6422 -12.73198,22.55387 -9.45808,7.09355 -26.0097,7.09355 -21.09878,0 -32.37571,-11.27693 -11.27693,-11.45882 -11.27693,-33.28514 0,-22.00822 12.73202,-33.83082 12.9139,-11.8226 35.83154,-11.8226 16.18785,0 24.7365,6.366 8.54866,6.1842 8.54866,15.6422 0,9.4581 -4.1834,13.8234 -4.00149,4.3652 -11.27693,4.3652 -7.09356,0 -11.45882,-3.8196 -4.36526,-3.8196 -4.36526,-11.2769 0,-3.2739 0.90943,-6.5479 h 6.00223 q 1.27321,-3.6377 1.27321,-6.5479 0,-8.7305 -8.73053,-8.7305 z m 182.97737,86.94149 q -23.4633,0 -35.2859,-12.00448 -11.6407,-12.18636 -11.6407,-33.64891 0,-21.6444 13.0958,-33.1032 13.2777,-11.4589 33.6489,-11.4589 41.2882,0 39.6512,41.47004 h -51.2919 v 7.09356 q 0,17.82482 4.5472,26.91912 4.5471,9.0943 15.8241,9.0943 21.0987,0 27.6466,-22.55386 l 3.274,0.54566 q -3.4558,13.09579 -12.5501,20.37123 -8.9125,7.27544 -26.9192,7.27544 z m -11.6407,-52.38319 h 18.7343 v -8.9124 q 0,-14.7328 -1.8189,-20.0075 -1.637,-5.4565 -6.9116,-5.4565 -5.0929,0 -7.6393,5.8203 -2.3645,5.6385 -2.3645,19.6437 z m 118.408,-30.9206 q -6.7298,0 -11.8226,8.7305 -5.0928,8.7306 -5.0928,20.735 v 48.74548 h 12.9139 v 3.27395 h -56.7484 v -3.27395 h 10.0037 v -80.02988 h -10.0037 v -3.2739 h 43.8345 v 17.461 q 2.3645,-9.2761 9.0943,-14.1871 6.7298,-5.0928 15.2785,-5.0928 8.5486,0 13.8233,4.911 5.4566,4.729 5.4566,13.6414 0,8.7305 -4.0015,13.4596 -4.0015,4.729 -12.3683,4.729 -8.1848,0 -12.1863,-5.4566 -3.8196,-5.4566 -0.9095,-15.0965 h 6.5479 q 4.5472,-9.2762 -3.8196,-9.2762 z"
             id="text29-2-5-3-5-8-3"
             style="font-size:181.886px;font-family:'Abril Fatface';-inkscape-font-specification:'Abril Fatface, Normal';fill:url(#linearGradient97);fill-opacity:1;stroke:none;stroke-width:4.71662;stroke-linecap:square;stroke-miterlimit:3.1;stroke-dasharray:none;stroke-opacity:1"
             aria-label="Groupie Trac   er" /><path
             style="fill:url(#linearGradient98);fill-opacity:1;stroke:none;stroke-width:4.71662;stroke-dasharray:none;stroke-opacity:1"
             d="m 1442.7272,295.3065 c -1.4508,-7.9479 -2.1447,-16.58966 -3.5324,-24.66374 12.2372,-12.30032 26.493,-28.63768 28.0069,-54.68913 0.5045,-8.95717 -1.3246,-16.46351 -3.5324,-24.66373 -1.5139,-5.67708 -5.5509,-20.87901 -11.6064,-18.41895 -21.1945,8.64176 -26.1777,50.46286 -20.1852,77.01897 -14.6343,15.07578 -39.3611,30.21463 -43.0827,59.4831 -1.9554,15.39119 2.9647,28.95308 9.9664,38.85642 9.0203,12.80494 26.4299,24.28526 48.5075,19.23896 2.7124,18.48203 9.588,45.66889 -8.3264,53.42758 -6.5602,2.83853 -21.3206,3.09084 -22.7714,-5.36168 19.7436,3.09084 19.6805,-24.60067 5.6771,-27.88075 -11.6065,-2.77546 -18.5451,8.57869 -19.0498,16.08505 -0.9461,14.06651 12.3635,24.22216 26.9977,23.90678 15.7066,-0.31541 26.8084,-9.90334 26.3668,-29.71001 -0.2522,-10.97568 -3.4692,-19.4913 -3.9739,-32.04393 12.6788,-6.05554 24.0329,-14.7604 25.5468,-32.04392 1.7662,-20.56364 -11.1018,-39.86566 -35.0086,-38.54102 z m 3.4693,-96.69949 c 5.6771,-5.48783 15.2651,-4.92013 15.7067,5.23553 0.4415,9.84028 -4.6679,18.60818 -9.3988,25.42068 -4.9202,7.0648 -10.0926,13.18341 -16.5266,16.90507 -3.5955,-15.39119 1.1985,-38.73028 10.2187,-47.56128 z m -47.8136,126.53568 c 0.757,-13.05728 6.8125,-22.58214 13.2466,-30.27774 6.9386,-8.32638 15.328,-14.6973 23.2129,-20.94211 1.3877,7.06484 2.0815,14.82347 3.0277,22.32983 -10.6603,4.73089 -22.7082,13.12035 -22.2036,30.3408 0.1891,5.9294 2.6493,11.66953 5.9925,16.14812 3.0908,4.03703 7.7586,9.02024 13.2464,8.26331 -0.2522,-3.34318 -4.2893,-4.16321 -6.3078,-6.18171 -10.1557,-9.77717 -2.5232,-29.96232 11.7326,-31.66545 1.9554,16.71581 4.2893,32.9901 6.3709,49.57976 -30.3408,4.60473 -49.769,-14.31885 -48.3182,-37.59481 z m 52.8599,35.95479 c -1.7031,-16.46353 -4.5417,-31.98086 -6.1186,-48.57052 6.1186,0.75692 11.3541,3.02777 15.0126,6.43401 12.6159,11.85878 7.3803,37.84716 -8.894,42.13651 z"
             id="path2-34-9-1-0-1-1"
             clip-path="url(#clipPath12-1-9-3)"
             transform="translate(-373.31845,-1306.0022)" /></g></g></g></g></svg>
